<svg width="13" height="21" viewBox="0 0 13 21" fill="none" xmlns="http://www.w3.org/2000/svg">
<path d="M7.18194 4.22093C8.2353 4.22093 9.09713 3.38372 9.09713 2.36047C9.09713 1.33721 8.2353 0.5 7.18194 0.5C6.12859 0.5 5.26676 1.33721 5.26676 2.36047C5.26676 3.38372 6.12859 4.22093 7.18194 4.22093ZM3.63885 7.38372L1.18742 19.393C1.06293 19.9605 1.52257 20.5 2.12586 20.5H2.20246C2.65253 20.5 3.03557 20.2023 3.1409 19.7744L4.6922 13.0581L6.70315 14.9186V19.5698C6.70315 20.0814 7.13406 20.5 7.66074 20.5C8.18742 20.5 8.61833 20.0814 8.61833 19.5698V14.3233C8.61833 13.8116 8.40766 13.3279 8.02462 12.9744L6.60739 11.6628L7.18194 8.87209C8.26107 10.0705 9.73836 10.8638 11.357 11.114C11.9316 11.1977 12.4487 10.7512 12.4487 10.1837C12.4487 9.72791 12.104 9.34651 11.6347 9.27209C10.1792 9.03954 8.97264 8.20233 8.33105 7.10465L7.37346 5.61628C7.11485 5.21457 6.71753 4.91536 6.25259 4.77219C5.78766 4.62903 5.28545 4.65125 4.83584 4.83488L1.16826 6.34186C0.821339 6.48591 0.525645 6.72583 0.317938 7.0318C0.110231 7.33776 -0.000329111 7.69628 7.35904e-07 8.06279V10.2674C7.35904e-07 10.7791 0.430917 11.1977 0.957593 11.1977C1.48427 11.1977 1.91519 10.7791 1.91519 10.2674V8.03488L3.63885 7.38372Z" fill="currentColor"/>
</svg>
