<svg width="43" height="36" viewBox="0 0 43 36" fill="none" xmlns="http://www.w3.org/2000/svg">
<g clip-path="url(#clip0_210_1874)">
<path d="M29.9955 7.71284H1.36975C0.992641 7.71284 0.649939 7.86646 0.401951 8.11367C0.153963 8.36089 -7.62939e-06 8.70241 -7.62939e-06 9.07835V29.2109C-7.62939e-06 29.5869 0.153963 29.9285 0.401951 30.1756C0.649939 30.4229 0.992641 30.5764 1.36975 30.5764H4.02424H4.37709L4.46014 30.2311C4.55439 29.8399 4.70382 29.4609 4.9041 29.1047C5.10076 28.755 5.34746 28.4293 5.64012 28.1376C6.0597 27.7193 6.54902 27.3948 7.07917 27.1758C7.61073 26.9564 8.18765 26.8406 8.78102 26.8406C9.3744 26.8406 9.95144 26.9564 10.4829 27.1758C11.0131 27.3948 11.5025 27.7194 11.9219 28.1376C12.2146 28.4293 12.4613 28.755 12.658 29.1047C12.8583 29.4609 13.0079 29.8399 13.1019 30.2311L13.1851 30.5764H13.5379H30.0821H30.435L30.5182 30.2311C30.5878 29.9416 30.6871 29.6596 30.8142 29.3891C30.9387 29.1243 31.0931 28.8679 31.2755 28.624L31.3653 28.3558V9.07835C31.3653 8.70241 31.2113 8.36089 30.9633 8.11367C30.7152 7.86646 30.3727 7.71284 29.9955 7.71284ZM1.36975 8.6102H29.9955C30.1241 8.6102 30.2415 8.66299 30.3267 8.74811C30.4121 8.83311 30.4651 8.95009 30.4651 9.07835V28.2113C30.2891 28.4618 30.1343 28.7293 30.002 29.0105C29.9003 29.2268 29.8133 29.45 29.7417 29.6789H13.8785C13.7682 29.3256 13.6219 28.9862 13.442 28.6665C13.204 28.2433 12.9077 27.8514 12.5583 27.5031C12.058 27.0044 11.4682 26.6146 10.8239 26.3487C10.1813 26.0832 9.48871 25.9433 8.78102 25.9433C8.07357 25.9433 7.38082 26.0832 6.73799 26.3487C6.09399 26.6146 5.504 27.0044 5.00371 27.5031C4.65436 27.8514 4.35808 28.2432 4.12001 28.6665C3.94014 28.9862 3.79387 29.3256 3.68352 29.6789H1.36975C1.24109 29.6789 1.12375 29.6262 1.03837 29.5411C0.953217 29.4561 0.900141 29.3391 0.900141 29.2109V9.07835C0.900141 8.95009 0.953217 8.83311 1.03837 8.74811C1.12375 8.66299 1.24109 8.6102 1.36975 8.6102Z" fill="currentColor"/>
<path d="M33.0587 12.6791H30.4651V28.3558L31.2755 28.624C31.3453 28.5308 31.4126 28.4468 31.4771 28.3725C31.5394 28.3007 31.613 28.2224 31.6982 28.1376C32.1176 27.7194 32.607 27.3948 33.1372 27.1758C33.6686 26.9564 34.2457 26.8406 34.839 26.8406C35.4324 26.8406 36.0094 26.9564 36.5409 27.1758C37.071 27.3948 37.5604 27.7193 37.9799 28.1376C38.2725 28.4293 38.5192 28.755 38.716 29.1047C38.9163 29.4609 39.0657 29.8399 39.1599 30.2311L39.2429 30.5764H39.5959H42.5073H43L42.9538 30.0874L42.1874 21.9713L42.0626 21.6997L33.3805 12.8159L33.2469 12.6791H33.0587ZM31.3653 13.5765H32.8706L41.3094 22.2113L42.0145 29.6789H39.9365C39.8261 29.3256 39.6799 28.9862 39.5 28.6665C39.262 28.2432 38.9657 27.8514 38.6163 27.5031C38.116 27.0044 37.5262 26.6146 36.882 26.3487C36.2392 26.0832 35.5465 25.9433 34.839 25.9433C34.1314 25.9433 33.4388 26.0832 32.7961 26.3487C32.2778 26.5626 31.7948 26.8566 31.3653 27.2231V13.5765Z" fill="currentColor"/>
<path d="M31.8579 17.1515L31.9815 21.1312C31.9972 21.6368 32.2142 22.0739 32.5525 22.3909C32.894 22.7108 33.3603 22.9071 33.8651 22.9238L39.3234 23.1061L40.0381 23.13L39.7488 22.4787C39.5039 21.9273 37.0445 18.5671 35.0753 16.7643C34.5375 16.2718 34.0253 15.8847 33.5855 15.6821C32.9853 15.4055 32.4825 15.4315 32.1405 15.8871C31.9425 16.1508 31.8397 16.562 31.8579 17.1515ZM32.8781 21.1067L32.7546 17.127C32.7429 16.7512 32.7808 16.5258 32.8578 16.4234C32.8931 16.3763 33.0208 16.4085 33.2094 16.4952C33.5583 16.6562 33.9936 16.9897 34.4671 17.4233C35.9548 18.7853 37.7169 21.0344 38.5141 22.1842L33.8932 22.0301C33.6117 22.0206 33.3541 21.9134 33.1677 21.7389C32.9961 21.5779 32.886 21.3585 32.8781 21.1067Z" fill="currentColor"/>
<path d="M34.839 27.2893C33.7367 27.2893 32.7388 27.7347 32.0164 28.4548C31.294 29.175 30.8471 30.1699 30.8471 31.2687C30.8471 32.3675 31.294 33.3624 32.0164 34.0826C32.7388 34.8027 33.7367 35.2482 34.839 35.2482C35.9413 35.2482 36.9392 34.8027 37.6616 34.0826C38.384 33.3624 38.8308 32.3675 38.8308 31.2687C38.8308 30.1699 38.384 29.175 37.6616 28.4548C36.9392 27.7347 35.9413 27.2893 34.839 27.2893ZM32.6528 29.0893C33.2123 28.5316 33.9852 28.1866 34.839 28.1866C35.6928 28.1866 36.4658 28.5316 37.0252 29.0893C37.5846 29.647 37.9307 30.4175 37.9307 31.2687C37.9307 32.1198 37.5846 32.8903 37.0252 33.4481C36.4658 34.0058 35.6928 34.3508 34.839 34.3508C33.9852 34.3508 33.2123 34.0058 32.6528 33.4481C32.0934 32.8903 31.7474 32.1198 31.7474 31.2687C31.7474 30.4175 32.0934 29.647 32.6528 29.0893Z" fill="currentColor"/>
<path d="M8.78104 27.2893C7.67886 27.2893 6.68085 27.7347 5.95847 28.4548C5.2362 29.175 4.78922 30.1699 4.78922 31.2687C4.78922 32.3675 5.2362 33.3624 5.95847 34.0826C6.68085 34.8027 7.67886 35.2482 8.78104 35.2482C9.88333 35.2482 10.8813 34.8027 11.6036 34.0826C12.3261 33.3624 12.773 32.3675 12.773 31.2687C12.773 30.1699 12.3261 29.175 11.6036 28.4548C10.8813 27.7347 9.88333 27.2893 8.78104 27.2893ZM6.59488 29.0893C7.15431 28.5316 7.92732 28.1866 8.78104 28.1866C9.635 28.1866 10.4078 28.5316 10.9672 29.0893C11.5267 29.647 11.8727 30.4175 11.8727 31.2687C11.8727 32.1198 11.5267 32.8903 10.9672 33.4481C10.4078 34.0058 9.635 34.3508 8.78104 34.3508C7.92732 34.3508 7.15431 34.0058 6.59488 33.4481C6.03545 32.8903 5.68937 32.1198 5.68937 31.2687C5.68937 30.4175 6.03545 29.647 6.59488 29.0893Z" fill="currentColor"/>
<path d="M8.78102 30.0898C8.45616 30.0898 8.16082 30.2221 7.94584 30.436L7.94491 30.4351C7.73087 30.6484 7.59847 30.9432 7.59847 31.2686C7.59847 31.5922 7.73075 31.8863 7.94491 32.1005L7.94584 32.1014L7.94666 32.1023C8.16152 32.3156 8.45663 32.4476 8.78102 32.4476C9.10751 32.4476 9.40321 32.3156 9.61725 32.1023L9.61632 32.1014C9.83094 31.8871 9.96368 31.5927 9.96368 31.2686C9.96368 30.9432 9.83118 30.6484 9.61725 30.4351C9.40321 30.2217 9.10751 30.0898 8.78102 30.0898ZM8.58132 31.0679C8.63137 31.0181 8.70182 30.9871 8.78102 30.9871C8.85905 30.9871 8.92986 31.0187 8.98083 31.0696C9.03192 31.1204 9.06354 31.191 9.06354 31.2686C9.06354 31.3477 9.03251 31.418 8.98258 31.4678H8.98083C8.92986 31.5187 8.85905 31.5503 8.78102 31.5503C8.70182 31.5503 8.63137 31.5194 8.58132 31.4696L8.57946 31.4678C8.52965 31.418 8.49862 31.3477 8.49862 31.2686C8.49862 31.191 8.53035 31.1204 8.58132 31.0696V31.0679Z" fill="currentColor"/>
<path d="M34.839 30.0898C34.5141 30.0898 34.2186 30.2221 34.0038 30.436L34.0028 30.4351C33.7889 30.6484 33.6564 30.9432 33.6564 31.2686C33.6564 31.5922 33.7887 31.8863 34.0028 32.1005L34.0038 32.1014L34.0046 32.1023C34.2194 32.3156 34.5145 32.4476 34.839 32.4476C35.1655 32.4476 35.4611 32.3156 35.6752 32.1023L35.6742 32.1014C35.8888 31.8871 36.0216 31.5927 36.0216 31.2686C36.0216 30.9432 35.8892 30.6484 35.6752 30.4351C35.4611 30.2217 35.1655 30.0898 34.839 30.0898ZM34.6392 31.0679C34.6892 31.0181 34.7598 30.9871 34.839 30.9871C34.9171 30.9871 34.9877 31.0187 35.0387 31.0696C35.0898 31.1204 35.1214 31.191 35.1214 31.2686C35.1214 31.3477 35.0905 31.418 35.0405 31.4678H35.0387C34.9877 31.5187 34.9171 31.5503 34.839 31.5503C34.7598 31.5503 34.6892 31.5194 34.6392 31.4696L34.6375 31.4678C34.5875 31.418 34.5566 31.3477 34.5566 31.2686C34.5566 31.191 34.5882 31.1204 34.6392 31.0696V31.0679Z" fill="currentColor"/>
<path d="M19.9643 12.9827C19.1881 12.4639 18.2389 12.3374 17.2484 12.5463C16.3756 12.7305 15.4675 13.1778 14.623 13.8465C13.7785 13.1778 12.8705 12.7305 11.9975 12.5463C11.0071 12.3374 10.0578 12.4639 9.28169 12.9827C8.29067 13.6449 7.87647 14.9262 7.89618 16.3459C7.91717 17.8579 8.43216 19.5522 9.25836 20.7807C9.5684 21.242 10.5257 22.6379 11.5662 23.8611C12.6967 25.1903 13.9645 26.3206 14.8346 26.0324C15.5416 25.8309 16.3524 25.2011 17.1671 24.3607C18.1464 23.3507 19.1553 22.0183 19.9876 20.7808L19.9877 20.7807C20.7703 19.6168 21.2737 18.0375 21.3428 16.5914C21.4151 15.0758 21.0119 13.6827 19.9643 12.9827ZM17.4312 13.4227C18.19 13.2627 18.902 13.3494 19.465 13.7257C20.2188 14.2295 20.5044 15.3267 20.446 16.5494C20.3844 17.8419 19.9372 19.2496 19.2424 20.2829V20.283C18.4362 21.4816 17.4617 22.7692 16.5201 23.7403C15.7997 24.4835 15.1155 25.0295 14.5762 25.1766L14.5516 25.1836C14.1342 25.3228 13.1773 24.3706 12.2518 23.2828C11.2357 22.0881 10.305 20.7312 10.0036 20.283C9.26932 19.1908 8.81161 17.6828 8.79294 16.3353C8.77708 15.2001 9.07208 14.1995 9.78093 13.7257C10.344 13.3494 11.0561 13.2627 11.8146 13.4227C12.6418 13.5971 13.5187 14.0613 14.3276 14.7647L14.623 15.0216L14.9183 14.7647C15.7271 14.0613 16.6041 13.5971 17.4312 13.4227Z" fill="currentColor"/>
<path d="M17.6048 18.3731H11.6414V19.2705H17.6048V18.3731Z" fill="currentColor"/>
<path d="M14.1729 15.8424V21.8012H15.0731V15.8424H14.1729Z" fill="currentColor"/>
<path d="M24.6846 5.29288C23.9377 5.29288 23.2614 5.59464 22.772 6.08279C22.2824 6.57071 21.9796 7.24481 21.9796 7.98948C21.9796 7.99844 21.9808 8.03193 21.983 8.09146C21.985 8.14379 21.9866 8.17821 21.9879 8.19484L22.0194 8.6102H22.4363H26.9332H27.35L27.3815 8.19484C27.3827 8.17821 27.3844 8.14379 27.3864 8.09146C27.3887 8.03193 27.3897 7.99844 27.3897 7.98948C27.3897 7.24481 27.0869 6.57071 26.5974 6.08279C26.1079 5.59464 25.4316 5.29288 24.6846 5.29288ZM23.4084 6.71711C23.735 6.39164 24.1862 6.19024 24.6846 6.19024C25.1832 6.19024 25.6345 6.39164 25.961 6.71711C26.2257 6.98107 26.4086 7.32667 26.4684 7.71284H22.901C22.9607 7.32667 23.1436 6.98107 23.4084 6.71711Z" fill="white"/>
<path d="M17.8888 3.53991C17.6995 3.38118 17.6751 3.09955 17.8343 2.9107C17.9935 2.72198 18.276 2.69767 18.4654 2.8564L21.5107 5.40788C21.7002 5.56649 21.7245 5.84836 21.5653 6.03709C21.4061 6.22581 21.1236 6.25012 20.9342 6.09139L17.8888 3.53991Z" fill="currentColor"/>
<path d="M21.0362 0.915754C20.9149 0.699933 20.992 0.426785 21.2085 0.305851C21.425 0.1848 21.6989 0.261779 21.8203 0.477601L23.7664 3.93632C23.8877 4.15202 23.8106 4.42517 23.5941 4.54622C23.3776 4.66716 23.1036 4.59029 22.9822 4.37447L21.0362 0.915754Z" fill="currentColor"/>
<path d="M31.4805 3.53991C31.6699 3.38118 31.6943 3.09955 31.5351 2.9107C31.3759 2.72198 31.0932 2.69767 30.9039 2.8564L27.8586 5.40788C27.6692 5.56649 27.6449 5.84836 27.8041 6.03709C27.9633 6.22581 28.2458 6.25012 28.4353 6.09139L31.4805 3.53991Z" fill="currentColor"/>
<path d="M28.3332 0.915754C28.4546 0.699933 28.3774 0.426785 28.1609 0.305851C27.9444 0.1848 27.6704 0.261779 27.5491 0.477601L25.603 3.93632C25.4816 4.15202 25.5588 4.42517 25.7753 4.54622C25.9918 4.66716 26.2658 4.59029 26.3871 4.37447L28.3332 0.915754Z" fill="currentColor"/>
</g>
<defs>
<clipPath id="clip0_210_1874">
<rect width="43" height="35" fill="white" transform="matrix(-1 0 0 1 43 0.248169)"/>
</clipPath>
</defs>
</svg>
