<svg width="45" height="46" viewBox="0 0 45 46" fill="none" xmlns="http://www.w3.org/2000/svg">
<mask id="path-1-inside-1_207_1843" fill="white">
<path d="M19.6875 18.0607H17.8125V16.1857C17.8125 15.6884 17.615 15.2115 17.2633 14.8598C16.9117 14.5082 16.4348 14.3107 15.9375 14.3107C15.4402 14.3107 14.9633 14.5082 14.6117 14.8598C14.26 15.2115 14.0625 15.6884 14.0625 16.1857V18.0607H12.1875C11.6902 18.0607 11.2133 18.2582 10.8617 18.6098C10.51 18.9615 10.3125 19.4384 10.3125 19.9357C10.3125 20.433 10.51 20.9099 10.8617 21.2615C11.2133 21.6131 11.6902 21.8107 12.1875 21.8107H14.0625V23.6857C14.0625 24.1829 14.26 24.6599 14.6117 25.0115C14.9633 25.3631 15.4402 25.5607 15.9375 25.5607C16.4348 25.5607 16.9117 25.3631 17.2633 25.0115C17.615 24.6599 17.8125 24.1829 17.8125 23.6857V21.8107H19.6875C20.1848 21.8107 20.6617 21.6131 21.0133 21.2615C21.365 20.9099 21.5625 20.433 21.5625 19.9357C21.5625 19.4384 21.365 18.9615 21.0133 18.6098C20.6617 18.2582 20.1848 18.0607 19.6875 18.0607ZM42.9938 22.0919L42.8813 21.8857C42.849 21.7929 42.8048 21.7047 42.75 21.6232L38.25 15.6232C37.726 14.9246 37.0466 14.3575 36.2656 13.967C35.4845 13.5765 34.6233 13.3732 33.75 13.3732H30V11.4982C30 10.0063 29.4074 8.57559 28.3525 7.52069C27.2976 6.4658 25.8668 5.87317 24.375 5.87317H7.5C6.00816 5.87317 4.57742 6.4658 3.52252 7.52069C2.46763 8.57559 1.875 10.0063 1.875 11.4982V32.1232C1.875 32.6204 2.07254 33.0974 2.42417 33.449C2.77581 33.8006 3.25272 33.9982 3.75 33.9982H5.625C5.625 35.49 6.21763 36.9208 7.27252 37.9756C8.32742 39.0305 9.75816 39.6232 11.25 39.6232C12.7418 39.6232 14.1726 39.0305 15.2275 37.9756C16.2824 36.9208 16.875 35.49 16.875 33.9982H28.125C28.125 35.49 28.7176 36.9208 29.7725 37.9756C30.8274 39.0305 32.2582 39.6232 33.75 39.6232C35.2418 39.6232 36.6726 39.0305 37.7275 37.9756C38.7824 36.9208 39.375 35.49 39.375 33.9982H41.25C41.7473 33.9982 42.2242 33.8006 42.5758 33.449C42.9275 33.0974 43.125 32.6204 43.125 32.1232V22.7482C43.121 22.5233 43.0765 22.301 42.9938 22.0919ZM11.25 35.8732C10.8792 35.8732 10.5166 35.7632 10.2083 35.5572C9.89996 35.3511 9.65964 35.0583 9.51773 34.7157C9.37581 34.3731 9.33868 33.9961 9.41103 33.6324C9.48337 33.2687 9.66195 32.9346 9.92418 32.6723C10.1864 32.4101 10.5205 32.2315 10.8842 32.1592C11.2479 32.0868 11.6249 32.124 11.9675 32.2659C12.3101 32.4078 12.603 32.6481 12.809 32.9565C13.015 33.2648 13.125 33.6273 13.125 33.9982C13.125 34.4954 12.9275 34.9724 12.5758 35.324C12.2242 35.6756 11.7473 35.8732 11.25 35.8732ZM26.25 30.2482H15.4125C14.8853 29.6681 14.2427 29.2047 13.5258 28.8875C12.809 28.5704 12.0338 28.4066 11.25 28.4066C10.4662 28.4066 9.69098 28.5704 8.97416 28.8875C8.25734 29.2047 7.61472 29.6681 7.0875 30.2482H5.625V11.4982C5.625 11.0009 5.82254 10.524 6.17417 10.1723C6.52581 9.82071 7.00272 9.62317 7.5 9.62317H24.375C24.8723 9.62317 25.3492 9.82071 25.7008 10.1723C26.0525 10.524 26.25 11.0009 26.25 11.4982V30.2482ZM30 17.1232H33.75C34.0411 17.1232 34.3282 17.1909 34.5885 17.3211C34.8489 17.4513 35.0753 17.6403 35.25 17.8732L37.5 20.8732H30V17.1232ZM33.75 35.8732C33.3792 35.8732 33.0166 35.7632 32.7083 35.5572C32.4 35.3511 32.1596 35.0583 32.0177 34.7157C31.8758 34.3731 31.8387 33.9961 31.911 33.6324C31.9834 33.2687 32.1619 32.9346 32.4242 32.6723C32.6864 32.4101 33.0205 32.2315 33.3842 32.1592C33.7479 32.0868 34.1249 32.124 34.4675 32.2659C34.8101 32.4078 35.103 32.6481 35.309 32.9565C35.515 33.2648 35.625 33.6273 35.625 33.9982C35.625 34.4954 35.4275 34.9724 35.0758 35.324C34.7242 35.6756 34.2473 35.8732 33.75 35.8732ZM39.375 30.2482H37.9125C36.9148 29.1495 35.5233 28.4897 34.0412 28.4124C32.5591 28.3351 31.1066 28.8467 30 29.8357V24.6232H39.375V30.2482Z"/>
</mask>
<path d="M19.6875 18.0607H17.8125V16.1857C17.8125 15.6884 17.615 15.2115 17.2633 14.8598C16.9117 14.5082 16.4348 14.3107 15.9375 14.3107C15.4402 14.3107 14.9633 14.5082 14.6117 14.8598C14.26 15.2115 14.0625 15.6884 14.0625 16.1857V18.0607H12.1875C11.6902 18.0607 11.2133 18.2582 10.8617 18.6098C10.51 18.9615 10.3125 19.4384 10.3125 19.9357C10.3125 20.433 10.51 20.9099 10.8617 21.2615C11.2133 21.6131 11.6902 21.8107 12.1875 21.8107H14.0625V23.6857C14.0625 24.1829 14.26 24.6599 14.6117 25.0115C14.9633 25.3631 15.4402 25.5607 15.9375 25.5607C16.4348 25.5607 16.9117 25.3631 17.2633 25.0115C17.615 24.6599 17.8125 24.1829 17.8125 23.6857V21.8107H19.6875C20.1848 21.8107 20.6617 21.6131 21.0133 21.2615C21.365 20.9099 21.5625 20.433 21.5625 19.9357C21.5625 19.4384 21.365 18.9615 21.0133 18.6098C20.6617 18.2582 20.1848 18.0607 19.6875 18.0607ZM42.9938 22.0919L42.8813 21.8857C42.849 21.7929 42.8048 21.7047 42.75 21.6232L38.25 15.6232C37.726 14.9246 37.0466 14.3575 36.2656 13.967C35.4845 13.5765 34.6233 13.3732 33.75 13.3732H30V11.4982C30 10.0063 29.4074 8.57559 28.3525 7.52069C27.2976 6.4658 25.8668 5.87317 24.375 5.87317H7.5C6.00816 5.87317 4.57742 6.4658 3.52252 7.52069C2.46763 8.57559 1.875 10.0063 1.875 11.4982V32.1232C1.875 32.6204 2.07254 33.0974 2.42417 33.449C2.77581 33.8006 3.25272 33.9982 3.75 33.9982H5.625C5.625 35.49 6.21763 36.9208 7.27252 37.9756C8.32742 39.0305 9.75816 39.6232 11.25 39.6232C12.7418 39.6232 14.1726 39.0305 15.2275 37.9756C16.2824 36.9208 16.875 35.49 16.875 33.9982H28.125C28.125 35.49 28.7176 36.9208 29.7725 37.9756C30.8274 39.0305 32.2582 39.6232 33.75 39.6232C35.2418 39.6232 36.6726 39.0305 37.7275 37.9756C38.7824 36.9208 39.375 35.49 39.375 33.9982H41.25C41.7473 33.9982 42.2242 33.8006 42.5758 33.449C42.9275 33.0974 43.125 32.6204 43.125 32.1232V22.7482C43.121 22.5233 43.0765 22.301 42.9938 22.0919ZM11.25 35.8732C10.8792 35.8732 10.5166 35.7632 10.2083 35.5572C9.89996 35.3511 9.65964 35.0583 9.51773 34.7157C9.37581 34.3731 9.33868 33.9961 9.41103 33.6324C9.48337 33.2687 9.66195 32.9346 9.92418 32.6723C10.1864 32.4101 10.5205 32.2315 10.8842 32.1592C11.2479 32.0868 11.6249 32.124 11.9675 32.2659C12.3101 32.4078 12.603 32.6481 12.809 32.9565C13.015 33.2648 13.125 33.6273 13.125 33.9982C13.125 34.4954 12.9275 34.9724 12.5758 35.324C12.2242 35.6756 11.7473 35.8732 11.25 35.8732ZM26.25 30.2482H15.4125C14.8853 29.6681 14.2427 29.2047 13.5258 28.8875C12.809 28.5704 12.0338 28.4066 11.25 28.4066C10.4662 28.4066 9.69098 28.5704 8.97416 28.8875C8.25734 29.2047 7.61472 29.6681 7.0875 30.2482H5.625V11.4982C5.625 11.0009 5.82254 10.524 6.17417 10.1723C6.52581 9.82071 7.00272 9.62317 7.5 9.62317H24.375C24.8723 9.62317 25.3492 9.82071 25.7008 10.1723C26.0525 10.524 26.25 11.0009 26.25 11.4982V30.2482ZM30 17.1232H33.75C34.0411 17.1232 34.3282 17.1909 34.5885 17.3211C34.8489 17.4513 35.0753 17.6403 35.25 17.8732L37.5 20.8732H30V17.1232ZM33.75 35.8732C33.3792 35.8732 33.0166 35.7632 32.7083 35.5572C32.4 35.3511 32.1596 35.0583 32.0177 34.7157C31.8758 34.3731 31.8387 33.9961 31.911 33.6324C31.9834 33.2687 32.1619 32.9346 32.4242 32.6723C32.6864 32.4101 33.0205 32.2315 33.3842 32.1592C33.7479 32.0868 34.1249 32.124 34.4675 32.2659C34.8101 32.4078 35.103 32.6481 35.309 32.9565C35.515 33.2648 35.625 33.6273 35.625 33.9982C35.625 34.4954 35.4275 34.9724 35.0758 35.324C34.7242 35.6756 34.2473 35.8732 33.75 35.8732ZM39.375 30.2482H37.9125C36.9148 29.1495 35.5233 28.4897 34.0412 28.4124C32.5591 28.3351 31.1066 28.8467 30 29.8357V24.6232H39.375V30.2482Z" fill="currentColor" stroke="currentColor" stroke-width="2" mask="url(#path-1-inside-1_207_1843)"/>
</svg>
