<svg width="18" height="21" viewBox="0 0 18 21" fill="none" xmlns="http://www.w3.org/2000/svg">
<path d="M17.1494 8.41662C16.4357 7.19764 15.2795 6.30081 13.9213 5.91276C12.5631 5.52471 11.1076 5.67533 9.8577 6.33328V1.12495H7.77437V6.33328C6.52444 5.67533 5.06894 5.52471 3.71077 5.91276C2.35259 6.30081 1.19637 7.19764 0.482704 8.41662C-1.60063 11.5416 3.6077 20.9166 5.69104 20.9166C7.77437 20.9166 7.77437 19.8749 8.81604 19.8749C9.8577 19.8749 9.8577 20.9166 11.941 20.9166C14.0244 20.9166 19.2327 11.5416 17.1494 8.41662ZM15.3265 11.9375C14.6806 14.5104 13.4098 16.8749 11.6285 18.8333C11.4202 18.8333 11.1806 18.7291 11.0035 18.5729C10.3844 18.0722 9.61226 17.7991 8.81604 17.7991C8.01982 17.7991 7.24769 18.0722 6.62854 18.5729C6.45145 18.7291 6.21187 18.8333 6.00354 18.8333C4.21734 16.8815 2.94631 14.5149 2.30562 11.9479C2.0452 11.1875 1.99312 10.3645 2.21187 9.58328C2.50836 9.05467 2.93666 8.61182 3.45508 8.29784C3.9735 7.98387 4.56438 7.80947 5.1702 7.79162C5.75354 7.80203 6.32645 7.93745 6.84729 8.19787L7.77437 8.66662H9.8577L10.7848 8.19787C11.3056 7.93745 11.8785 7.80203 12.4619 7.79162C13.691 7.82287 14.816 8.49995 15.4202 9.57287C15.639 10.3541 15.5869 11.177 15.3265 11.9375ZM7.77437 3.20828C1.9202 6.4062 0.597287 1.93745 0.597287 1.93745C0.597287 1.93745 3.36812 -1.80213 7.77437 3.20828Z" fill="currentColor"/>
</svg>
