<svg width="19" height="15" viewBox="0 0 19 15" fill="none" xmlns="http://www.w3.org/2000/svg">
<path d="M17.1727 6.24996H5.31816L10.4723 2.14085C10.7664 1.90566 10.9316 1.58668 10.9316 1.25408C10.9316 0.921478 10.7664 0.602498 10.4723 0.367312C10.1782 0.132126 9.77931 0 9.36339 0C8.94746 0 8.54857 0.132126 8.25446 0.367312L0.445152 6.61216C0.302959 6.73095 0.191497 6.87101 0.117161 7.02433C-0.0390536 7.3284 -0.0390536 7.66947 0.117161 7.97354C0.191497 8.12686 0.302959 8.26692 0.445152 8.3857L8.25446 14.6306C8.39966 14.7476 8.5724 14.8405 8.76273 14.9039C8.95306 14.9674 9.1572 15 9.36339 15C9.56957 15 9.77372 14.9674 9.96404 14.9039C10.1544 14.8405 10.3271 14.7476 10.4723 14.6306C10.6187 14.5144 10.7349 14.3763 10.8142 14.2241C10.8935 14.0719 10.9343 13.9087 10.9343 13.7438C10.9343 13.5789 10.8935 13.4157 10.8142 13.2635C10.7349 13.1113 10.6187 12.9731 10.4723 12.857L5.31816 8.7479H17.1727C17.5869 8.7479 17.9842 8.61632 18.2771 8.38209C18.57 8.14786 18.7346 7.83018 18.7346 7.49893C18.7346 7.16769 18.57 6.85001 18.2771 6.61578C17.9842 6.38155 17.5869 6.24996 17.1727 6.24996Z" fill="currentColor" fill-opacity="0.75"/>
</svg>
