<svg width="40" height="41" viewBox="0 0 40 41" fill="none" xmlns="http://www.w3.org/2000/svg">
<path d="M31.6667 11.0815H26.6667V9.41483C26.6667 8.08874 26.1399 6.81697 25.2022 5.87929C24.2645 4.94161 22.9928 4.41483 21.6667 4.41483H18.3333C17.0073 4.41483 15.7355 4.94161 14.7978 5.87929C13.8601 6.81697 13.3333 8.08874 13.3333 9.41483V11.0815H8.33334C7.00726 11.0815 5.73549 11.6083 4.79781 12.546C3.86013 13.4836 3.33334 14.7554 3.33334 16.0815V31.0815C3.33334 32.4076 3.86013 33.6793 4.79781 34.617C5.73549 35.5547 7.00726 36.0815 8.33334 36.0815H31.6667C32.9928 36.0815 34.2645 35.5547 35.2022 34.617C36.1399 33.6793 36.6667 32.4076 36.6667 31.0815V16.0815C36.6667 14.7554 36.1399 13.4836 35.2022 12.546C34.2645 11.6083 32.9928 11.0815 31.6667 11.0815ZM16.6667 9.41483C16.6667 8.9728 16.8423 8.54887 17.1548 8.23631C17.4674 7.92375 17.8913 7.74816 18.3333 7.74816H21.6667C22.1087 7.74816 22.5326 7.92375 22.8452 8.23631C23.1577 8.54887 23.3333 8.9728 23.3333 9.41483V11.0815H16.6667V9.41483ZM33.3333 31.0815C33.3333 31.5235 33.1578 31.9474 32.8452 32.26C32.5326 32.5726 32.1087 32.7482 31.6667 32.7482H8.33334C7.89132 32.7482 7.46739 32.5726 7.15483 32.26C6.84227 31.9474 6.66668 31.5235 6.66668 31.0815V21.9148C8.29242 22.5597 9.96365 23.0833 11.6667 23.4815V24.4648C11.6667 24.9069 11.8423 25.3308 12.1548 25.6433C12.4674 25.9559 12.8913 26.1315 13.3333 26.1315C13.7754 26.1315 14.1993 25.9559 14.5119 25.6433C14.8244 25.3308 15 24.9069 15 24.4648V24.1148C16.6573 24.3404 18.3275 24.4574 20 24.4648C21.6725 24.4574 23.3428 24.3404 25 24.1148V24.4648C25 24.9069 25.1756 25.3308 25.4882 25.6433C25.8007 25.9559 26.2247 26.1315 26.6667 26.1315C27.1087 26.1315 27.5326 25.9559 27.8452 25.6433C28.1578 25.3308 28.3333 24.9069 28.3333 24.4648V23.4815C30.0364 23.0833 31.7076 22.5597 33.3333 21.9148V31.0815ZM33.3333 18.2648C31.7123 18.949 30.0406 19.5062 28.3333 19.9315V19.4148C28.3333 18.9728 28.1578 18.5489 27.8452 18.2363C27.5326 17.9238 27.1087 17.7482 26.6667 17.7482C26.2247 17.7482 25.8007 17.9238 25.4882 18.2363C25.1756 18.5489 25 18.9728 25 19.4148V20.6482C21.6854 21.1482 18.3146 21.1482 15 20.6482V19.4148C15 18.9728 14.8244 18.5489 14.5119 18.2363C14.1993 17.9238 13.7754 17.7482 13.3333 17.7482C12.8913 17.7482 12.4674 17.9238 12.1548 18.2363C11.8423 18.5489 11.6667 18.9728 11.6667 19.4148V19.9648C9.95938 19.5395 8.28769 18.9823 6.66668 18.2982V16.0815C6.66668 15.6395 6.84227 15.2155 7.15483 14.903C7.46739 14.5904 7.89132 14.4148 8.33334 14.4148H31.6667C32.1087 14.4148 32.5326 14.5904 32.8452 14.903C33.1578 15.2155 33.3333 15.6395 33.3333 16.0815V18.2648Z" fill="currentColor"/>
</svg>
