<svg width="24" height="25" viewBox="0 0 24 25" fill="none" xmlns="http://www.w3.org/2000/svg">
<path d="M7.46439 19.2857H13.1787C13.5834 19.2857 13.923 19.1486 14.1972 18.8743C14.4715 18.6 14.6082 18.261 14.6072 17.8571V16.4286L16.4287 17.3929C16.6668 17.5119 16.8992 17.5 17.1258 17.3571C17.3525 17.2143 17.4653 17.0119 17.4644 16.75V13.25C17.4644 12.9881 17.3511 12.7857 17.1244 12.6429C16.8977 12.5 16.6658 12.4881 16.4287 12.6071L14.6072 13.5714V12.1429C14.6072 11.7381 14.4701 11.3986 14.1958 11.1243C13.9215 10.85 13.5825 10.7133 13.1787 10.7143H7.46439C7.05963 10.7143 6.72011 10.8514 6.44582 11.1257C6.17154 11.4 6.03487 11.739 6.03582 12.1429V17.8571C6.03582 18.2619 6.17296 18.6014 6.44725 18.8757C6.72154 19.15 7.06058 19.2867 7.46439 19.2857ZM0.321536 22.1429V9.28571C0.321536 8.83333 0.422964 8.40476 0.625821 8C0.828678 7.59524 1.1082 7.2619 1.46439 7L10.0358 0.571429C10.5358 0.190476 11.1072 0 11.7501 0C12.393 0 12.9644 0.190476 13.4644 0.571429L22.0358 7C22.393 7.2619 22.673 7.59524 22.8758 8C23.0787 8.40476 23.1796 8.83333 23.1787 9.28571V22.1429C23.1787 22.9286 22.8987 23.6014 22.3387 24.1614C21.7787 24.7214 21.1063 25.0009 20.3215 25H3.17868C2.39296 25 1.72011 24.72 1.16011 24.16C0.600107 23.6 0.320583 22.9276 0.321536 22.1429ZM3.17868 22.1429H20.3215V9.28571L11.7501 2.85714L3.17868 9.28571V22.1429Z" fill="currentColor"/>
</svg>
