<svg width="23" height="23" viewBox="0 0 23 23" fill="none" xmlns="http://www.w3.org/2000/svg">
<rect x="1" y="1" width="21" height="21" rx="10.5" stroke="currentColor" stroke-width="2"/>
<path d="M12.8513 11.5L16.9721 7.38875C17.1525 7.20829 17.2539 6.96354 17.2539 6.70833C17.2539 6.45313 17.1525 6.20837 16.9721 6.02792C16.7916 5.84746 16.5469 5.74608 16.2917 5.74608C16.0365 5.74608 15.7917 5.84746 15.6113 6.02792L11.5 10.1487L7.38875 6.02792C7.20829 5.84746 6.96354 5.74608 6.70834 5.74608C6.45313 5.74608 6.20838 5.84746 6.02792 6.02792C5.84746 6.20837 5.74608 6.45313 5.74608 6.70833C5.74608 6.96354 5.84746 7.20829 6.02792 7.38875L10.1488 11.5L6.02792 15.6112C5.9381 15.7003 5.8668 15.8063 5.81815 15.9231C5.7695 16.0399 5.74445 16.1652 5.74445 16.2917C5.74445 16.4182 5.7695 16.5434 5.81815 16.6602C5.8668 16.777 5.9381 16.883 6.02792 16.9721C6.11701 17.0619 6.223 17.1332 6.33978 17.1819C6.45656 17.2305 6.58182 17.2556 6.70834 17.2556C6.83485 17.2556 6.96011 17.2305 7.07689 17.1819C7.19367 17.1332 7.29966 17.0619 7.38875 16.9721L11.5 12.8512L15.6113 16.9721C15.7003 17.0619 15.8063 17.1332 15.9231 17.1819C16.0399 17.2305 16.1652 17.2556 16.2917 17.2556C16.4182 17.2556 16.5434 17.2305 16.6602 17.1819C16.777 17.1332 16.883 17.0619 16.9721 16.9721C17.0619 16.883 17.1332 16.777 17.1819 16.6602C17.2305 16.5434 17.2556 16.4182 17.2556 16.2917C17.2556 16.1652 17.2305 16.0399 17.1819 15.9231C17.1332 15.8063 17.0619 15.7003 16.9721 15.6112L12.8513 11.5Z" fill="currentColor"/>
</svg>
