<svg width="25" height="25" viewBox="0 0 25 25" fill="none" xmlns="http://www.w3.org/2000/svg">
<path opacity="0.2" d="M15.6248 15.625L10.9373 20.3125C10.5272 20.7235 10.0402 21.0496 9.50393 21.2721C8.96769 21.4946 8.39283 21.6091 7.81227 21.6091C7.2317 21.6091 6.65684 21.4946 6.1206 21.2721C5.58437 21.0496 5.09729 20.7235 4.68727 20.3125C4.27625 19.9025 3.95015 19.4154 3.72765 18.8792C3.50515 18.3429 3.39063 17.7681 3.39062 17.1875C3.39063 16.6069 3.50515 16.0321 3.72765 15.4958C3.95015 14.9596 4.27625 14.4725 4.68727 14.0625L9.37477 9.375L15.6248 15.625Z" fill="#031D44"/>
<path d="M20.8692 4.13097C19.8917 3.15654 18.5678 2.60938 17.1876 2.60938C15.8074 2.60938 14.4834 3.15654 13.5059 4.13097L4.13094 13.506C3.15451 14.4824 2.60596 15.8067 2.60596 17.1876C2.60596 18.5685 3.15451 19.8928 4.13094 20.8692C5.10737 21.8457 6.4317 22.3942 7.81258 22.3942C9.19347 22.3942 10.5178 21.8457 11.4942 20.8692L20.8692 11.4942C21.8413 10.5155 22.3868 9.19204 22.3868 7.81261C22.3868 6.43317 21.8413 5.10972 20.8692 4.13097ZM10.3809 19.756C10.0456 20.0967 9.64583 20.3673 9.20489 20.552C8.76394 20.7367 8.29065 20.8319 7.81258 20.8319C7.33451 20.8319 6.86122 20.7367 6.42028 20.552C5.97934 20.3673 5.57956 20.0967 5.24422 19.756C4.90585 19.4193 4.63733 19.0191 4.45411 18.5783C4.27089 18.1376 4.17656 17.6649 4.17656 17.1876C4.17656 16.7103 4.27089 16.2377 4.45411 15.7969C4.63733 15.3561 4.90585 14.9559 5.24422 14.6192L9.37508 10.4786L14.5216 15.6251L10.3809 19.756ZM19.7559 10.381L15.6251 14.5216L10.4786 9.37511L14.6192 5.24425C14.9546 4.90351 15.3543 4.6329 15.7953 4.44819C16.2362 4.26348 16.7095 4.16835 17.1876 4.16835C17.6657 4.16835 18.1389 4.26348 18.5799 4.44819C19.0208 4.6329 19.4206 4.90351 19.7559 5.24425C20.0943 5.58091 20.3628 5.98113 20.5461 6.42189C20.7293 6.86265 20.8236 7.33528 20.8236 7.81261C20.8236 8.28994 20.7293 8.76256 20.5461 9.20332C20.3628 9.64409 20.0943 10.0443 19.7559 10.381ZM18.5743 8.09581C18.6466 8.16896 18.7035 8.25581 18.7417 8.35127C18.7799 8.44673 18.7987 8.54887 18.7969 8.65168C18.795 8.75449 18.7727 8.8559 18.7311 8.94995C18.6895 9.04399 18.6296 9.12878 18.5548 9.19933L16.172 11.504C16.0988 11.5763 16.012 11.6332 15.9165 11.6714C15.821 11.7096 15.7189 11.7284 15.6161 11.7266C15.5133 11.7248 15.4119 11.7024 15.3178 11.6608C15.2238 11.6192 15.139 11.5593 15.0684 11.4845C14.9962 11.4113 14.9393 11.3245 14.901 11.229C14.8628 11.1336 14.8441 11.0314 14.8459 10.9286C14.8477 10.8258 14.8701 10.7244 14.9116 10.6303C14.9532 10.5363 15.0132 10.4515 15.088 10.381L17.4708 8.07628C17.6198 7.93274 17.8197 7.85418 18.0266 7.85784C18.2335 7.8615 18.4304 7.94708 18.5743 8.09581Z" fill="currentColor"/>
</svg>
