<svg width="33" height="33" viewBox="0 0 33 33" fill="none" xmlns="http://www.w3.org/2000/svg">
<path d="M23.375 12.6087C23.1174 12.3527 22.7689 12.2089 22.4056 12.2089C22.0424 12.2089 21.6939 12.3527 21.4362 12.6087L16.5 17.4762L11.6325 12.6087C11.3749 12.3527 11.0264 12.2089 10.6631 12.2089C10.2999 12.2089 9.95136 12.3527 9.69374 12.6087C9.56486 12.7366 9.46257 12.8886 9.39276 13.0562C9.32296 13.2238 9.28702 13.4035 9.28702 13.585C9.28702 13.7665 9.32296 13.9462 9.39276 14.1138C9.46257 14.2813 9.56486 14.4334 9.69374 14.5612L15.5237 20.3912C15.6516 20.5201 15.8036 20.6224 15.9712 20.6922C16.1388 20.762 16.3185 20.798 16.5 20.798C16.6815 20.798 16.8612 20.762 17.0288 20.6922C17.1963 20.6224 17.3484 20.5201 17.4762 20.3912L23.375 14.5612C23.5039 14.4334 23.6062 14.2813 23.676 14.1138C23.7458 13.9462 23.7817 13.7665 23.7817 13.585C23.7817 13.4035 23.7458 13.2238 23.676 13.0562C23.6062 12.8886 23.5039 12.7366 23.375 12.6087Z" fill="currentColor"/>
</svg>
