<svg width="37" height="37" viewBox="0 0 37 37" fill="none" xmlns="http://www.w3.org/2000/svg">
<path d="M12.3333 4.625H12.025C9.43476 4.625 8.13964 4.625 7.15029 5.12909C6.28004 5.57251 5.57251 6.28004 5.12909 7.15029C4.625 8.13964 4.625 9.43476 4.625 12.025V12.3333M12.3333 32.375H12.025C9.43476 32.375 8.13964 32.375 7.15029 31.8709C6.28004 31.4275 5.57251 30.72 5.12909 29.8497C4.625 28.8604 4.625 27.5652 4.625 24.975V24.6667M32.375 12.3333V12.025C32.375 9.43476 32.375 8.13964 31.8709 7.15029C31.4275 6.28004 30.72 5.57251 29.8497 5.1291C28.8604 4.625 27.5652 4.625 24.975 4.625H24.6667M32.375 24.6667V24.975C32.375 27.5652 32.375 28.8604 31.8709 29.8497C31.4275 30.72 30.72 31.4275 29.8497 31.8709C28.8604 32.375 27.5652 32.375 24.975 32.375H24.6667M11.5625 12.3333V14.6458M25.4375 12.3333V14.6458M16.9583 19.4252C18.1917 19.4252 19.2708 18.346 19.2708 17.1127V12.3333M23.4336 23.4333C20.6586 26.2083 16.1878 26.2083 13.4128 23.4333" stroke="currentColor" stroke-width="2" stroke-linecap="round" stroke-linejoin="round"/>
</svg>
