<svg width="16" height="16" viewBox="0 0 16 16" fill="none" xmlns="http://www.w3.org/2000/svg">
<path fill-rule="evenodd" clip-rule="evenodd" d="M0 0.744362C0 0.333264 0.334007 0 0.746029 0H15.254C15.666 0 16 0.333233 16 0.744318V1.20521C16 4.64579 13.516 7.5466 10.1818 8.13584V13.0135C10.1818 13.3799 10.0627 13.7363 9.84242 14.0294L8.87273 15.3194C7.89424 16.6212 5.81818 15.9307 5.81818 14.3035V8.09518C2.42996 7.29204 0 4.26397 0 0.744362ZM1.49535 1.4513C1.80553 4.12305 3.85298 6.31496 6.56735 6.76634L6.64912 6.77994C7.00897 6.83978 7.27273 7.15043 7.27273 7.51444V14.3035C7.27273 14.536 7.56931 14.6346 7.70909 14.4487L8.67879 13.1586C8.71026 13.1168 8.72727 13.0658 8.72727 13.0135V7.51427C8.72727 7.12787 9.02413 6.80598 9.41005 6.7739C12.2304 6.53939 14.4183 4.24705 14.5401 1.4513H1.49535Z" fill="currentColor"/>
</svg>
