<svg width="25" height="29" viewBox="0 0 25 29" fill="none" xmlns="http://www.w3.org/2000/svg">
<path d="M3.125 28.1719C2.26562 28.1719 1.53021 27.8661 0.91875 27.2547C0.30625 26.6422 0 25.9062 0 25.0469V10.9844C0 10.4896 0.110937 10.0208 0.332812 9.57813C0.553646 9.13542 0.859375 8.77083 1.25 8.48437L10.625 1.45313C11.1719 1.03646 11.7969 0.828125 12.5 0.828125C13.2031 0.828125 13.8281 1.03646 14.375 1.45313L23.75 8.48437C24.1406 8.77083 24.4469 9.13542 24.6688 9.57813C24.8896 10.0208 25 10.4896 25 10.9844V25.0469C25 25.9062 24.6943 26.6422 24.0828 27.2547C23.4703 27.8661 22.7344 28.1719 21.875 28.1719H3.125ZM3.125 25.0469H21.875V10.9844L12.5 3.95312L3.125 10.9844V25.0469ZM9.375 17.2344V22.7031C9.375 22.9115 9.45312 23.0938 9.60937 23.25C9.76562 23.4062 9.94792 23.4844 10.1562 23.4844C10.3646 23.4844 10.5469 23.4062 10.7031 23.25C10.8594 23.0938 10.9375 22.9115 10.9375 22.7031V17.2344C11.5885 17.2344 12.1417 17.0063 12.5969 16.55C13.0531 16.0948 13.2812 15.5417 13.2812 14.8906V10.9844C13.2812 10.776 13.2031 10.5937 13.0469 10.4375C12.8906 10.2812 12.7083 10.2031 12.5 10.2031C12.2917 10.2031 12.1094 10.2812 11.9531 10.4375C11.7969 10.5937 11.7188 10.776 11.7188 10.9844V14.8906H10.9375V10.9844C10.9375 10.776 10.8594 10.5937 10.7031 10.4375C10.5469 10.2812 10.3646 10.2031 10.1562 10.2031C9.94792 10.2031 9.76562 10.2812 9.60937 10.4375C9.45312 10.5937 9.375 10.776 9.375 10.9844V14.8906H8.59375V10.9844C8.59375 10.776 8.51563 10.5937 8.35938 10.4375C8.20313 10.2812 8.02083 10.2031 7.8125 10.2031C7.60417 10.2031 7.42187 10.2812 7.26562 10.4375C7.10937 10.5937 7.03125 10.776 7.03125 10.9844V14.8906C7.03125 15.5417 7.25937 16.0948 7.71562 16.55C8.17083 17.0063 8.72396 17.2344 9.375 17.2344ZM16.4062 23.4844C16.6146 23.4844 16.7969 23.4062 16.9531 23.25C17.1094 23.0938 17.1875 22.9115 17.1875 22.7031V11.1406C17.1875 10.9323 17.1094 10.75 16.9531 10.5938C16.7969 10.4375 16.6146 10.3594 16.4062 10.3594C15.6771 10.3594 15.1042 10.6589 14.6875 11.2578C14.2708 11.8568 14.0625 12.5469 14.0625 13.3281V17.2344C14.0625 17.4427 14.1406 17.625 14.2969 17.7812C14.4531 17.9375 14.6354 18.0156 14.8438 18.0156H15.625V22.7031C15.625 22.9115 15.7031 23.0938 15.8594 23.25C16.0156 23.4062 16.1979 23.4844 16.4062 23.4844ZM3.125 25.0469H21.875H3.125Z" fill="currentColor" fill-opacity="0.5"/>
</svg>
