<svg width="31" height="31" viewBox="0 0 31 31" fill="none" xmlns="http://www.w3.org/2000/svg">
<path d="M27.6546 11.16C27.6546 11.16 27.6546 11.16 27.6546 11.0954C26.7445 8.61053 25.0931 6.46515 22.9238 4.94949C20.7546 3.43382 18.1721 2.62101 15.5258 2.62101C12.8795 2.62101 10.2971 3.43382 8.12782 4.94949C5.95857 6.46515 4.30719 8.61053 3.39708 11.0954C3.39708 11.0954 3.39708 11.0954 3.39708 11.16C2.3807 13.9641 2.3807 17.0359 3.39708 19.84C3.39708 19.84 3.39708 19.84 3.39708 19.9046C4.30719 22.3895 5.95857 24.5348 8.12782 26.0505C10.2971 27.5662 12.8795 28.379 15.5258 28.379C18.1721 28.379 20.7546 27.5662 22.9238 26.0505C25.0931 24.5348 26.7445 22.3895 27.6546 19.9046C27.6546 19.9046 27.6546 19.9046 27.6546 19.84C28.671 17.0359 28.671 13.9641 27.6546 11.16ZM5.5025 18.0833C5.05458 16.3902 5.05458 14.6098 5.5025 12.9167H7.905C7.69837 14.6327 7.69837 16.3673 7.905 18.0833H5.5025ZM6.56167 20.6667H8.37C8.67318 21.8186 9.10652 22.9323 9.66167 23.9862C8.39493 23.1233 7.33601 21.9894 6.56167 20.6667ZM8.37 10.3333H6.56167C7.32487 9.01465 8.37025 7.88106 9.62292 7.01375C9.08113 8.06935 8.66081 9.183 8.37 10.3333ZM14.2083 25.4458C12.6219 24.2816 11.5076 22.5851 11.0696 20.6667H14.2083V25.4458ZM14.2083 18.0833H10.5142C10.2731 16.3695 10.2731 14.6305 10.5142 12.9167H14.2083V18.0833ZM14.2083 10.3333H11.0696C11.5076 8.4149 12.6219 6.71837 14.2083 5.55416V10.3333ZM24.4383 10.3333H22.63C22.3268 9.18137 21.8935 8.06767 21.3383 7.01375C22.6051 7.87667 23.664 9.01059 24.4383 10.3333ZM16.7917 5.55416C18.3781 6.71837 19.4923 8.4149 19.9304 10.3333H16.7917V5.55416ZM16.7917 25.4458V20.6667H19.9304C19.4923 22.5851 18.3781 24.2816 16.7917 25.4458ZM20.4858 18.0833H16.7917V12.9167H20.4858C20.7269 14.6305 20.7269 16.3695 20.4858 18.0833ZM21.3771 23.9862C21.9322 22.9323 22.3656 21.8186 22.6687 20.6667H24.4771C23.7027 21.9894 22.6438 23.1233 21.3771 23.9862ZM25.4975 18.0833H23.095C23.2 17.2263 23.2518 16.3635 23.25 15.5C23.2514 14.6365 23.1997 13.7738 23.095 12.9167H25.4975C25.9454 14.6098 25.9454 16.3902 25.4975 18.0833Z" fill="currentColor"/>
</svg>
