<svg width="24" height="24" viewBox="0 0 24 24" fill="none" xmlns="http://www.w3.org/2000/svg">
<path d="M11.8798 19.1154C12.0721 19.0994 12.2365 19.0235 12.373 18.8876C12.5089 18.751 12.5769 18.5866 12.5769 18.3943C12.5769 18.1699 12.5048 17.9898 12.3605 17.8539C12.2163 17.7174 12.032 17.6571 11.8076 17.6731C11.1506 17.7212 10.4535 17.5411 9.7163 17.1327C8.97912 16.7238 8.51438 15.9824 8.32207 14.9087C8.29002 14.7324 8.20573 14.5882 8.06919 14.476C7.93329 14.3638 7.7772 14.3077 7.60092 14.3077C7.37656 14.3077 7.19227 14.3917 7.04803 14.5597C6.9038 14.7283 6.85573 14.9247 6.9038 15.1491C7.17624 16.6074 7.81727 17.6491 8.82688 18.2741C9.8365 18.8991 10.8541 19.1795 11.8798 19.1154ZM11.6153 22.0001C9.41983 22.0001 7.58906 21.2469 6.12303 19.7404C4.65637 18.234 3.92303 16.359 3.92303 14.1154C3.92303 12.5129 4.56021 10.7702 5.83457 8.88756C7.10829 7.00422 9.03521 4.9648 11.6153 2.76929C14.1955 4.9648 16.1227 7.00422 17.3971 8.88756C18.6708 10.7702 19.3076 12.5129 19.3076 14.1154C19.3076 16.359 18.5743 18.234 17.1076 19.7404C15.6416 21.2469 13.8109 22.0001 11.6153 22.0001ZM11.6153 20.077C13.282 20.077 14.6602 19.5122 15.75 18.3827C16.8397 17.2526 17.3846 15.8302 17.3846 14.1154C17.3846 12.9456 16.9 11.6235 15.9307 10.1491C14.9609 8.67474 13.5224 7.06416 11.6153 5.31736C9.70829 7.06416 8.27015 8.67474 7.30092 10.1491C6.33105 11.6235 5.84611 12.9456 5.84611 14.1154C5.84611 15.8302 6.39098 17.2526 7.48073 18.3827C8.57047 19.5122 9.94868 20.077 11.6153 20.077Z" fill="currentColor"/>
</svg>
