<svg width="40" height="41" viewBox="0 0 40 41" fill="none" xmlns="http://www.w3.org/2000/svg">
<path d="M33.6 8.58149C31.8333 6.81017 29.4914 5.72906 26.9972 5.53344C24.5031 5.33783 22.0213 6.0406 20 7.51483C17.8794 5.93756 15.24 5.22235 12.6132 5.51322C9.98643 5.8041 7.56741 7.07946 5.8433 9.08247C4.11919 11.0855 3.21805 13.6674 3.32135 16.3082C3.42464 18.949 4.52471 21.4526 6.40001 23.3148L16.75 33.6815C17.6167 34.5345 18.784 35.0125 20 35.0125C21.216 35.0125 22.3833 34.5345 23.25 33.6815L33.6 23.3148C35.546 21.3569 36.6382 18.7086 36.6382 15.9482C36.6382 13.1877 35.546 10.5394 33.6 8.58149ZM31.25 21.0148L20.9 31.3648C20.7822 31.4837 20.6421 31.5781 20.4876 31.6426C20.3331 31.707 20.1674 31.7402 20 31.7402C19.8326 31.7402 19.6669 31.707 19.5124 31.6426C19.358 31.5781 19.2178 31.4837 19.1 31.3648L8.75001 20.9648C7.44294 19.6287 6.71103 17.8339 6.71103 15.9648C6.71103 14.0957 7.44294 12.3009 8.75001 10.9648C10.0819 9.64981 11.8783 8.91244 13.75 8.91244C15.6217 8.91244 17.4181 9.64981 18.75 10.9648C18.905 11.121 19.0893 11.245 19.2924 11.3296C19.4955 11.4143 19.7133 11.4578 19.9333 11.4578C20.1534 11.4578 20.3712 11.4143 20.5743 11.3296C20.7774 11.245 20.9617 11.121 21.1167 10.9648C22.4486 9.64981 24.245 8.91244 26.1167 8.91244C27.9884 8.91244 29.7848 9.64981 31.1167 10.9648C32.4417 12.2834 33.1977 14.0685 33.2226 15.9376C33.2475 17.8068 32.5394 19.6114 31.25 20.9648V21.0148Z" fill="currentColor"/>
</svg>
