<svg width="40" height="41" viewBox="0 0 40 41" fill="none" xmlns="http://www.w3.org/2000/svg">
<path d="M31.6667 3.58151H8.33334C7.00726 3.58151 5.73549 4.1083 4.79781 5.04598C3.86013 5.98366 3.33334 7.25543 3.33334 8.58151V31.9148C3.33334 33.2409 3.86013 34.5127 4.79781 35.4504C5.73549 36.3881 7.00726 36.9148 8.33334 36.9148H31.6667C32.9928 36.9148 34.2645 36.3881 35.2022 35.4504C36.1399 34.5127 36.6667 33.2409 36.6667 31.9148V8.58151C36.6667 7.25543 36.1399 5.98366 35.2022 5.04598C34.2645 4.1083 32.9928 3.58151 31.6667 3.58151ZM33.3333 31.9148C33.3333 32.3569 33.1577 32.7808 32.8452 33.0934C32.5326 33.4059 32.1087 33.5815 31.6667 33.5815H8.33334C7.89132 33.5815 7.46739 33.4059 7.15483 33.0934C6.84227 32.7808 6.66668 32.3569 6.66668 31.9148V8.58151C6.66668 8.13948 6.84227 7.71556 7.15483 7.403C7.46739 7.09044 7.89132 6.91485 8.33334 6.91485H31.6667C32.1087 6.91485 32.5326 7.09044 32.8452 7.403C33.1577 7.71556 33.3333 8.13948 33.3333 8.58151V31.9148ZM28.3333 15.2482H25V11.9148C25 11.4728 24.8244 11.0489 24.5119 10.7363C24.1993 10.4238 23.7754 10.2482 23.3333 10.2482H16.6667C16.2246 10.2482 15.8007 10.4238 15.4882 10.7363C15.1756 11.0489 15 11.4728 15 11.9148V15.2482H11.6667C11.2246 15.2482 10.8007 15.4238 10.4882 15.7363C10.1756 16.0489 10 16.4728 10 16.9148V23.5815C10 24.0235 10.1756 24.4475 10.4882 24.76C10.8007 25.0726 11.2246 25.2482 11.6667 25.2482H15V28.5815C15 29.0235 15.1756 29.4475 15.4882 29.76C15.8007 30.0726 16.2246 30.2482 16.6667 30.2482H23.3333C23.7754 30.2482 24.1993 30.0726 24.5119 29.76C24.8244 29.4475 25 29.0235 25 28.5815V25.2482H28.3333C28.7754 25.2482 29.1993 25.0726 29.5119 24.76C29.8244 24.4475 30 24.0235 30 23.5815V16.9148C30 16.4728 29.8244 16.0489 29.5119 15.7363C29.1993 15.4238 28.7754 15.2482 28.3333 15.2482ZM26.6667 21.9148H23.3333C22.8913 21.9148 22.4674 22.0904 22.1548 22.403C21.8423 22.7156 21.6667 23.1395 21.6667 23.5815V26.9148H18.3333V23.5815C18.3333 23.1395 18.1577 22.7156 17.8452 22.403C17.5326 22.0904 17.1087 21.9148 16.6667 21.9148H13.3333V18.5815H16.6667C17.1087 18.5815 17.5326 18.4059 17.8452 18.0934C18.1577 17.7808 18.3333 17.3569 18.3333 16.9148V13.5815H21.6667V16.9148C21.6667 17.3569 21.8423 17.7808 22.1548 18.0934C22.4674 18.4059 22.8913 18.5815 23.3333 18.5815H26.6667V21.9148Z" fill="#031D44"/>
</svg>
