<svg width="40" height="41" viewBox="0 0 40 41" fill="none" xmlns="http://www.w3.org/2000/svg">
<path d="M39.325 16.7499L21.3203 0.745766C20.9553 0.425045 20.4859 0.248169 20 0.248169C19.5141 0.248169 19.0447 0.425045 18.6797 0.745766L0.67504 16.7499C0.369033 17.0206 0.153242 17.3785 0.0566799 17.7754C-0.0398821 18.1724 -0.012585 18.5894 0.134901 18.9704C0.279975 19.3464 0.535214 19.6698 0.867188 19.8983C1.19916 20.1267 1.59239 20.2496 1.99538 20.2508H3.99589V38.2554C3.99589 38.786 4.20666 39.2948 4.58183 39.67C4.957 40.0451 5.46584 40.2559 5.99641 40.2559H34.0036C34.5342 40.2559 35.043 40.0451 35.4182 39.67C35.7933 39.2948 36.0041 38.786 36.0041 38.2554V20.2508H38.0046C38.4076 20.2496 38.8008 20.1267 39.1328 19.8983C39.4648 19.6698 39.72 19.3464 39.8651 18.9704C40.0126 18.5894 40.0399 18.1724 39.9433 17.7754C39.8468 17.3785 39.631 17.0206 39.325 16.7499ZM22.0005 36.2549H17.9995V30.2533C17.9995 29.7228 18.2103 29.2139 18.5854 28.8388C18.9606 28.4636 19.4694 28.2528 20 28.2528C20.5306 28.2528 21.0394 28.4636 21.4146 28.8388C21.7897 29.2139 22.0005 29.7228 22.0005 30.2533V36.2549ZM32.0031 36.2549H26.0015V30.2533C26.0015 28.6616 25.3692 27.1351 24.2437 26.0096C23.1182 24.8841 21.5917 24.2518 20 24.2518C18.4083 24.2518 16.8818 24.8841 15.7563 26.0096C14.6308 27.1351 13.9985 28.6616 13.9985 30.2533V36.2549H7.99692V20.2508H32.0031V36.2549ZM7.25673 16.2497L20 4.92684L32.7433 16.2497H7.25673Z" fill="#031D44"/>
</svg>
