<svg width="24" height="24" viewBox="0 0 24 24" fill="none" xmlns="http://www.w3.org/2000/svg">
<path d="M3.93019 4.34355C3.7784 4.34355 3.62905 4.34991 3.48069 4.36215L3.40039 3.3858C3.57519 3.3716 3.75196 3.36426 3.93019 3.36426C7.44584 3.36426 10.2956 6.21399 10.2956 9.72964V10.5606L11.6646 12.6141C12.098 13.2649 11.6318 14.1364 10.8489 14.1364H10.2956V15.1157C10.2956 15.2456 10.244 15.3701 10.1522 15.462C10.0603 15.5538 9.93579 15.6054 9.80593 15.6054H9.31628C9.05656 15.6054 8.80747 15.7086 8.62382 15.8922C8.44017 16.0759 8.33699 16.3249 8.33699 16.5847H9.80593C9.93579 16.5847 10.0603 16.6363 10.1522 16.7281C10.244 16.8199 10.2956 16.9445 10.2956 17.0743V18.5433C10.2957 18.8791 10.2094 19.2094 10.045 19.5023C9.88062 19.7952 9.64367 20.041 9.35692 20.2159C9.00683 20.4294 8.63029 20.4578 8.29929 20.4142C7.97319 20.3711 7.66128 20.2555 7.4052 20.1454L5.39912 19.286V21.4811H4.41983V18.5433C4.41976 18.4622 4.43982 18.3824 4.4782 18.311C4.51659 18.2396 4.57211 18.1788 4.63977 18.1341C4.70743 18.0895 4.78512 18.0623 4.86586 18.0551C4.94661 18.0479 5.02789 18.0608 5.1024 18.0928L7.79055 19.2454C8.02215 19.3443 8.23563 19.4182 8.42709 19.4432C8.61168 19.4677 8.7434 19.4427 8.84622 19.3796C9.12924 19.2072 9.31628 18.8968 9.31628 18.5433V17.564H7.84735C7.71748 17.564 7.59294 17.5124 7.50112 17.4205C7.40929 17.3287 7.3577 17.2042 7.3577 17.0743V16.5847C7.3577 16.0652 7.56405 15.5671 7.93136 15.1997C8.29866 14.8324 8.79683 14.6261 9.31628 14.6261V13.6468C9.31628 13.5169 9.36787 13.3924 9.45969 13.3006C9.55152 13.2087 9.67606 13.1572 9.80593 13.1572H10.8494L9.39854 10.9807C9.34488 10.9002 9.31626 10.8057 9.31628 10.7089V9.72964C9.31628 6.75505 6.90478 4.34355 3.93019 4.34355Z" fill="currentColor"/>
<path fill-rule="evenodd" clip-rule="evenodd" d="M18.4822 7.7875C18.3569 7.75413 18.2236 7.77178 18.1113 7.83658C17.9991 7.90138 17.9171 8.00805 17.8834 8.13319L17.642 9.02924C17.5775 9.00048 17.5075 8.98601 17.4369 8.98682C17.3663 8.98764 17.2967 9.00371 17.2329 9.03394C17.1691 9.06417 17.1126 9.10785 17.0672 9.16197C17.0219 9.2161 16.9888 9.27939 16.9702 9.34751L15.8024 13.6466H14.2125C14.0826 13.6466 13.9581 13.6982 13.8663 13.79C13.7744 13.8818 13.7228 14.0064 13.7228 14.1362H12.7436C12.6137 14.1362 12.4891 14.1878 12.3973 14.2797C12.3055 14.3715 12.2539 14.496 12.2539 14.6259V17.0741C12.2539 17.204 12.3055 17.3285 12.3973 17.4203C12.4891 17.5122 12.6137 17.5638 12.7436 17.5638H13.7228C13.7228 17.6936 13.7744 17.8182 13.8663 17.91C13.9581 18.0018 14.0826 18.0534 14.2125 18.0534H17.2502C17.7863 18.0533 18.3075 17.8773 18.7338 17.5525C19.1601 17.2276 19.4681 16.7717 19.6103 16.2549L21.0499 11.0265C21.0809 10.9141 21.0708 10.7942 21.0214 10.6885C20.9719 10.5829 20.8863 10.4984 20.7801 10.4502L20.6361 10.3856L21.0166 8.97147C21.0333 8.90929 21.0376 8.84442 21.0292 8.78057C21.0209 8.71673 21 8.65517 20.9678 8.59941C20.9356 8.54365 20.8927 8.49478 20.8416 8.45562C20.7905 8.41645 20.7321 8.38775 20.6699 8.37116L18.4822 7.7875V7.7875ZM14.7021 17.0741H17.2502C17.5719 17.0741 17.8846 16.9685 18.1404 16.7735C18.3962 16.5786 18.581 16.305 18.6663 15.9949L19.9785 11.2278L17.7497 10.2142L16.649 14.2645C16.6208 14.3683 16.5593 14.4599 16.4739 14.5252C16.3885 14.5905 16.284 14.6259 16.1765 14.6259H14.7021V17.0741ZM18.5312 9.49343L19.7171 10.033L19.9438 9.19083L18.702 8.85983L18.5312 9.49343V9.49343ZM13.2332 15.1155H13.7228V16.5845H13.2332V15.1155Z" fill="currentColor"/>
<path d="M7.60263 11.6882C7.79742 11.6882 7.98424 11.6108 8.12198 11.4731C8.25972 11.3353 8.3371 11.1485 8.3371 10.9537C8.3371 10.7589 8.25972 10.5721 8.12198 10.4344C7.98424 10.2966 7.79742 10.2192 7.60263 10.2192C7.40784 10.2192 7.22102 10.2966 7.08328 10.4344C6.94555 10.5721 6.86816 10.7589 6.86816 10.9537C6.86816 11.1485 6.94555 11.3353 7.08328 11.4731C7.22102 11.6108 7.40784 11.6882 7.60263 11.6882Z" fill="currentColor"/>
</svg>
