<svg width="24" height="24" viewBox="0 0 24 24" fill="none" xmlns="http://www.w3.org/2000/svg">
<path d="M10.7981 15.4423L9.43268 14.0865L10.7981 12.7211L12.1538 14.0865L13.5096 12.7211L12.1538 11.3653L13.5096 10.0096L14.875 11.3653L16.2308 10.0096L13.5096 7.28842L6.71153 14.0865L9.43268 16.8077L10.7981 15.4423ZM3.03845 19.1153L6.03845 16.125L3.99999 14.0865L13.5096 4.56727L15.5577 6.61535L16.9038 5.24996L15.5577 3.88458L16.9038 2.52881L20.9904 6.61535L19.6346 7.9615L18.2692 6.61535L16.9038 7.9615L18.9519 10.0096L9.43268 19.5192L7.39422 17.4807L3.03845 21.8461V19.1153Z" fill="currentColor"/>
</svg>
