<svg width="20" height="21" viewBox="0 0 20 21" fill="none" xmlns="http://www.w3.org/2000/svg">
<path d="M10 2.375C8.39303 2.375 6.82214 2.85152 5.486 3.74431C4.14985 4.6371 3.10844 5.90605 2.49348 7.3907C1.87852 8.87535 1.71762 10.509 2.03112 12.0851C2.34463 13.6612 3.11846 15.1089 4.25476 16.2452C5.39106 17.3815 6.8388 18.1554 8.4149 18.4689C9.99099 18.7824 11.6247 18.6215 13.1093 18.0065C14.594 17.3916 15.8629 16.3502 16.7557 15.014C17.6485 13.6779 18.125 12.107 18.125 10.5C18.1229 8.34575 17.2662 6.28033 15.743 4.75704C14.2197 3.23376 12.1543 2.37707 10 2.375ZM10 17.375C8.64026 17.375 7.31105 16.9718 6.18046 16.2164C5.04987 15.4609 4.16868 14.3872 3.64833 13.1309C3.12798 11.8747 2.99183 10.4924 3.2571 9.15875C3.52238 7.82513 4.17716 6.60013 5.13864 5.63864C6.10013 4.67716 7.32514 4.02237 8.65876 3.7571C9.99238 3.49183 11.3747 3.62798 12.631 4.14833C13.8872 4.66868 14.9609 5.54987 15.7164 6.68045C16.4718 7.81104 16.875 9.14025 16.875 10.5C16.8729 12.3227 16.1479 14.0702 14.8591 15.3591C13.5702 16.6479 11.8227 17.3729 10 17.375ZM11.25 14.25C11.25 14.4158 11.1842 14.5747 11.0669 14.6919C10.9497 14.8092 10.7908 14.875 10.625 14.875H10C9.83424 14.875 9.67527 14.8092 9.55806 14.6919C9.44085 14.5747 9.375 14.4158 9.375 14.25V10.5C9.20924 10.5 9.05027 10.4342 8.93306 10.3169C8.81585 10.1997 8.75 10.0408 8.75 9.875C8.75 9.70924 8.81585 9.55027 8.93306 9.43306C9.05027 9.31585 9.20924 9.25 9.375 9.25H10C10.1658 9.25 10.3247 9.31585 10.4419 9.43306C10.5592 9.55027 10.625 9.70924 10.625 9.875V13.625C10.7908 13.625 10.9497 13.6908 11.0669 13.8081C11.1842 13.9253 11.25 14.0842 11.25 14.25ZM8.90625 7.0625C8.90625 6.87708 8.96124 6.69582 9.06425 6.54165C9.16726 6.38748 9.31368 6.26732 9.48499 6.19636C9.65629 6.12541 9.84479 6.10684 10.0267 6.14301C10.2085 6.17919 10.3756 6.26848 10.5067 6.39959C10.6378 6.5307 10.7271 6.69775 10.7632 6.8796C10.7994 7.06146 10.7808 7.24996 10.7099 7.42127C10.6389 7.59257 10.5188 7.73899 10.3646 7.842C10.2104 7.94502 10.0292 8 9.84375 8C9.59511 8 9.35666 7.90123 9.18084 7.72541C9.00503 7.5496 8.90625 7.31114 8.90625 7.0625Z" fill="currentColor"/>
</svg>
