<svg xmlns="http://www.w3.org/2000/svg" xmlns:xlink="http://www.w3.org/1999/xlink" version="1.1" x="0px" y="0px" viewBox="0 0 100 125" enable-background="new 0 0 100 100" xml:space="preserve"><path fill="none" stroke="currentColor" stroke-width="3" stroke-linecap="round" stroke-linejoin="round" stroke-miterlimit="10" d="  M46.973,13.934v-0.943c0-1.76,1.427-3.187,3.187-3.187h0.475c1.76,0,3.187,1.427,3.187,3.187v0.943 M60.831,20.354v-1.551  c0-1.76-1.427-3.187-3.187-3.187H43.03c-1.76,0-3.187,1.427-3.187,3.187v1.947 M76.451,24.465c0-1.76-1.427-3.187-3.187-3.187  H26.325c-1.76,0-3.187,1.427-3.187,3.187v61.718c0,1.76,1.427,3.187,3.187,3.187h46.939c1.76,0,3.187-1.427,3.187-3.187V24.465z   M69.4,61.578h-6.772l-2.859-9.561l-4.721,10.623l-5.252-12.482l-7.286,11.951l-3.729-9.428l-4.57,6.891h-3.718 M34.078,70.209  h31.869 M34.078,75.521h31.869 M52.137,80.833h-1.743 M34.078,80.833h12.161 M45.499,37.233h8.289 M49.643,33.089v8.288   M58.048,37.101c0,4.559-3.695,8.254-8.253,8.254s-8.253-3.695-8.253-8.254c0-4.559,3.695-8.254,8.253-8.254  S58.048,32.542,58.048,37.101z"/></svg>