<svg width="20" height="21" viewBox="0 0 20 21" fill="none" xmlns="http://www.w3.org/2000/svg">
<path opacity="0.2" d="M12.5002 13L8.7502 16.75C8.42218 17.0788 8.03252 17.3397 7.60353 17.5177C7.17454 17.6957 6.71465 17.7873 6.2502 17.7873C5.78575 17.7873 5.32586 17.6957 4.89687 17.5177C4.46788 17.3397 4.07822 17.0788 3.7502 16.75C3.42139 16.422 3.16051 16.0323 2.98251 15.6033C2.80451 15.1743 2.71289 14.7145 2.71289 14.25C2.71289 13.7855 2.80451 13.3257 2.98251 12.8967C3.16051 12.4677 3.42139 12.078 3.7502 11.75L7.5002 8L12.5002 13Z" fill="currentColor"/>
<path d="M16.6956 3.80467C15.9136 3.02514 14.8544 2.5874 13.7503 2.5874C12.6461 2.5874 11.5869 3.02514 10.8049 3.80467L3.30495 11.3047C2.5238 12.0858 2.08496 13.1453 2.08496 14.25C2.08496 15.3547 2.5238 16.4142 3.30495 17.1953C4.08609 17.9764 5.14556 18.4153 6.25026 18.4153C7.35497 18.4153 8.41443 17.9764 9.19557 17.1953L16.6956 9.6953C17.4732 8.9123 17.9096 7.85353 17.9096 6.74999C17.9096 5.64644 17.4732 4.58768 16.6956 3.80467ZM8.30495 16.3047C8.03668 16.5773 7.71686 16.7938 7.3641 16.9415C7.01135 17.0893 6.63272 17.1654 6.25026 17.1654C5.86781 17.1654 5.48917 17.0893 5.13642 16.9415C4.78366 16.7938 4.46384 16.5773 4.19557 16.3047C3.92487 16.0353 3.71006 15.7152 3.56348 15.3626C3.4169 15.01 3.34145 14.6319 3.34145 14.25C3.34145 13.8681 3.4169 13.49 3.56348 13.1374C3.71006 12.7848 3.92487 12.4646 4.19557 12.1953L7.50026 8.8828L11.6174 13L8.30495 16.3047ZM15.8049 8.80468L12.5003 12.1172L8.38307 7.99999L11.6956 4.6953C11.9638 4.42271 12.2837 4.20622 12.6364 4.05845C12.9892 3.91068 13.3678 3.83458 13.7503 3.83458C14.1327 3.83458 14.5113 3.91068 14.8641 4.05845C15.2169 4.20622 15.5367 4.42271 15.8049 4.6953C16.0757 4.96463 16.2905 5.2848 16.437 5.63741C16.5836 5.99002 16.6591 6.36812 16.6591 6.74999C16.6591 7.13185 16.5836 7.50995 16.437 7.86256C16.2905 8.21517 16.0757 8.53534 15.8049 8.80468ZM14.8596 6.97655C14.9175 7.03507 14.963 7.10455 14.9936 7.18092C15.0241 7.25729 15.0391 7.339 15.0377 7.42125C15.0362 7.50349 15.0183 7.58462 14.9851 7.65986C14.9518 7.7351 14.9039 7.80293 14.844 7.85936L12.9378 9.70311C12.8792 9.76093 12.8098 9.80646 12.7334 9.83704C12.657 9.86761 12.5753 9.88261 12.4931 9.88116C12.4108 9.8797 12.3297 9.86182 12.2545 9.82856C12.1792 9.7953 12.1114 9.74734 12.0549 9.68749C11.9971 9.62897 11.9516 9.55948 11.921 9.48312C11.8904 9.40675 11.8754 9.32504 11.8769 9.24279C11.8784 9.16054 11.8962 9.07942 11.9295 9.00418C11.9628 8.92894 12.0107 8.86111 12.0706 8.80468L13.9768 6.96092C14.096 6.84609 14.256 6.78324 14.4215 6.78617C14.587 6.7891 14.7446 6.85757 14.8596 6.97655Z" fill="currentColor"/>
</svg>
