<svg width="24" height="31" viewBox="0 0 24 31" fill="none" xmlns="http://www.w3.org/2000/svg">
<path d="M20.9999 17.2212V12.5837C20.9978 10.5174 20.2646 8.51851 18.93 6.94104C17.5954 5.36357 15.7456 4.30929 13.7083 3.96491V2.37533C13.7083 1.98855 13.5546 1.61762 13.2811 1.34413C13.0076 1.07064 12.6367 0.916992 12.2499 0.916992C11.8631 0.916992 11.4922 1.07064 11.2187 1.34413C10.9452 1.61762 10.7916 1.98855 10.7916 2.37533V3.96491C8.75421 4.30929 6.90443 5.36357 5.56986 6.94104C4.23528 8.51851 3.50201 10.5174 3.49992 12.5837V17.2212C2.64891 17.522 1.91179 18.0788 1.38962 18.815C0.86745 19.5513 0.585789 20.431 0.583252 21.3337V24.2503C0.583252 24.6371 0.736898 25.008 1.01039 25.2815C1.28388 25.555 1.65481 25.7087 2.04159 25.7087H6.62075C6.95658 26.9444 7.68971 28.0353 8.70704 28.8131C9.72436 29.5908 10.9694 30.0122 12.2499 30.0122C13.5305 30.0122 14.7755 29.5908 15.7928 28.8131C16.8101 28.0353 17.5433 26.9444 17.8791 25.7087H22.4583C22.845 25.7087 23.216 25.555 23.4894 25.2815C23.7629 25.008 23.9166 24.6371 23.9166 24.2503V21.3337C23.914 20.431 23.6324 19.5513 23.1102 18.815C22.588 18.0788 21.8509 17.522 20.9999 17.2212ZM6.41658 12.5837C6.41658 11.0366 7.03117 9.55283 8.12513 8.45887C9.21909 7.36491 10.7028 6.75033 12.2499 6.75033C13.797 6.75033 15.2807 7.36491 16.3747 8.45887C17.4687 9.55283 18.0833 11.0366 18.0833 12.5837V16.9587H6.41658V12.5837ZM12.2499 27.167C11.7409 27.1639 11.2416 27.0277 10.8015 26.7719C10.3615 26.516 9.99608 26.1495 9.74158 25.7087H14.7583C14.5038 26.1495 14.1383 26.516 13.6983 26.7719C13.2582 27.0277 12.7589 27.1639 12.2499 27.167ZM20.9999 22.792H3.49992V21.3337C3.49992 20.9469 3.65356 20.576 3.92705 20.3025C4.20055 20.029 4.57148 19.8753 4.95825 19.8753H19.5416C19.9284 19.8753 20.2993 20.029 20.5728 20.3025C20.8463 20.576 20.9999 20.9469 20.9999 21.3337V22.792Z" fill="currentColor" fill-opacity="0.8"/>
</svg>
