<svg width="27" height="34" viewBox="0 0 27 34" fill="none" xmlns="http://www.w3.org/2000/svg">
<path d="M13.5 18.7C13.0524 18.7 12.6232 18.8791 12.3068 19.1979C11.9903 19.5167 11.8125 19.9491 11.8125 20.4V25.5C11.8125 25.9509 11.9903 26.3833 12.3068 26.7021C12.6232 27.0209 13.0524 27.2 13.5 27.2C13.9476 27.2 14.3768 27.0209 14.6932 26.7021C15.0097 26.3833 15.1875 25.9509 15.1875 25.5V20.4C15.1875 19.9491 15.0097 19.5167 14.6932 19.1979C14.3768 18.8791 13.9476 18.7 13.5 18.7ZM21.9375 11.9V8.5C21.9375 6.24566 21.0486 4.08365 19.4662 2.48959C17.8839 0.895533 15.7378 0 13.5 0C11.2622 0 9.11613 0.895533 7.53379 2.48959C5.95145 4.08365 5.0625 6.24566 5.0625 8.5V11.9C3.71984 11.9 2.43217 12.4373 1.48277 13.3938C0.533369 14.3502 0 15.6474 0 17V28.9C0 30.2526 0.533369 31.5498 1.48277 32.5062C2.43217 33.4627 3.71984 34 5.0625 34H21.9375C23.2802 34 24.5678 33.4627 25.5172 32.5062C26.4666 31.5498 27 30.2526 27 28.9V17C27 15.6474 26.4666 14.3502 25.5172 13.3938C24.5678 12.4373 23.2802 11.9 21.9375 11.9ZM8.4375 8.5C8.4375 7.1474 8.97087 5.85019 9.92027 4.89376C10.8697 3.93732 12.1573 3.4 13.5 3.4C14.8427 3.4 16.1303 3.93732 17.0797 4.89376C18.0291 5.85019 18.5625 7.1474 18.5625 8.5V11.9H8.4375V8.5ZM23.625 28.9C23.625 29.3509 23.4472 29.7833 23.1307 30.1021C22.8143 30.4209 22.3851 30.6 21.9375 30.6H5.0625C4.61495 30.6 4.18573 30.4209 3.86926 30.1021C3.55279 29.7833 3.375 29.3509 3.375 28.9V17C3.375 16.5491 3.55279 16.1167 3.86926 15.7979C4.18573 15.4791 4.61495 15.3 5.0625 15.3H21.9375C22.3851 15.3 22.8143 15.4791 23.1307 15.7979C23.4472 16.1167 23.625 16.5491 23.625 17V28.9Z" fill="currentColor"/>
</svg>
