<svg width="16" height="15" viewBox="0 0 16 15" fill="none" xmlns="http://www.w3.org/2000/svg">
<path d="M8.43897 1.25C4.98271 1.25 2.18896 4.04375 2.18896 7.5C2.18896 10.9563 4.98271 13.75 8.43897 13.75C11.8952 13.75 14.689 10.9563 14.689 7.5C14.689 4.04375 11.8952 1.25 8.43897 1.25ZM10.3765 4.41875C10.464 4.41875 10.5515 4.45 10.6265 4.51875L11.4202 5.3125C11.564 5.45 11.564 5.66875 11.4202 5.8L10.7952 6.425L9.51397 5.14375L10.139 4.51875C10.2015 4.45 10.289 4.41875 10.3765 4.41875ZM9.14522 5.50625L10.4327 6.79375L6.64522 10.5813H5.35772V9.29375L9.14522 5.50625Z" fill="#031D44" fill-opacity="0.5"/>
</svg>
