<svg width="19" height="19" viewBox="0 0 19 19" fill="none" xmlns="http://www.w3.org/2000/svg">
<path d="M9.20088 18.312C8.81688 18.312 8.52888 18.204 8.33688 17.988C8.14488 17.772 8.04888 17.484 8.04888 17.124V10.284H1.31688C0.956879 10.284 0.668879 10.188 0.452879 9.996C0.260879 9.804 0.164879 9.528 0.164879 9.168C0.164879 8.808 0.260879 8.532 0.452879 8.34C0.668879 8.148 0.956879 8.052 1.31688 8.052H8.04888V1.428C8.04888 1.044 8.14488 0.756 8.33688 0.563999C8.52888 0.347999 8.81688 0.239999 9.20088 0.239999C9.58488 0.239999 9.87288 0.347999 10.0649 0.563999C10.2569 0.756 10.3529 1.044 10.3529 1.428V8.052H17.0849C17.4449 8.052 17.7209 8.148 17.9129 8.34C18.1289 8.532 18.2369 8.808 18.2369 9.168C18.2369 9.528 18.1289 9.804 17.9129 9.996C17.7209 10.188 17.4449 10.284 17.0849 10.284H10.3529V17.124C10.3529 17.484 10.2569 17.772 10.0649 17.988C9.87288 18.204 9.58488 18.312 9.20088 18.312Z" fill="currentColor"/>
</svg>
