<svg width="24" height="25" viewBox="0 0 24 25" fill="none" xmlns="http://www.w3.org/2000/svg">
<path d="M9.12074 11.8909C8.08185 11.8909 7.0855 11.4782 6.35089 10.7436C5.61628 10.009 5.20358 9.01267 5.20358 7.97377V4.84004C5.20358 4.63226 5.28612 4.43299 5.43304 4.28607C5.57997 4.13915 5.77924 4.05661 5.98701 4.05661H6.77045C6.97823 4.05661 7.17749 3.97407 7.32442 3.82715C7.47134 3.68023 7.55388 3.48096 7.55388 3.27318C7.55388 3.0654 7.47134 2.86613 7.32442 2.71921C7.17749 2.57229 6.97823 2.48975 6.77045 2.48975H5.98701C5.36368 2.48975 4.76587 2.73737 4.3251 3.17813C3.88434 3.6189 3.63672 4.2167 3.63672 4.84004V7.97377C3.63773 8.85884 3.85355 9.73044 4.26566 10.5137C4.67776 11.297 5.27384 11.9685 6.00268 12.4707C6.70294 13.088 7.27083 13.8409 7.67209 14.6838C8.07334 15.5267 8.29964 16.4422 8.33731 17.375C8.33731 18.8294 8.91509 20.2243 9.94354 21.2527C10.972 22.2812 12.3669 22.859 13.8213 22.859C15.2758 22.859 16.6707 22.2812 17.6991 21.2527C18.7276 20.2243 19.3054 18.8294 19.3054 17.375V16.4818C20.0439 16.2912 20.6875 15.8377 21.1156 15.2064C21.5436 14.5751 21.7268 13.8094 21.6307 13.0528C21.5346 12.2961 21.1658 11.6005 20.5935 11.0963C20.0212 10.5921 19.2847 10.3139 18.5219 10.3139C17.7592 10.3139 17.0227 10.5921 16.4504 11.0963C15.878 11.6005 15.5093 12.2961 15.4132 13.0528C15.3171 13.8094 15.5002 14.5751 15.9283 15.2064C16.3564 15.8377 17 16.2912 17.7385 16.4818V17.375C17.7385 18.4138 17.3258 19.4102 16.5912 20.1448C15.8566 20.8794 14.8602 21.2921 13.8213 21.2921C12.7824 21.2921 11.7861 20.8794 11.0515 20.1448C10.3169 19.4102 9.90417 18.4138 9.90417 17.375C9.94383 16.441 10.1726 15.5248 10.5766 14.6819C10.9805 13.8389 11.5514 13.0867 12.2545 12.4707C12.9804 11.9668 13.5734 11.2945 13.9828 10.5113C14.3921 9.72815 14.6055 8.85745 14.6048 7.97377V4.84004C14.6048 4.2167 14.3571 3.6189 13.9164 3.17813C13.4756 2.73737 12.8778 2.48975 12.2545 2.48975H11.471C11.2633 2.48975 11.064 2.57229 10.9171 2.71921C10.7701 2.86613 10.6876 3.0654 10.6876 3.27318C10.6876 3.48096 10.7701 3.68023 10.9171 3.82715C11.064 3.97407 11.2633 4.05661 11.471 4.05661H12.2545C12.4622 4.05661 12.6615 4.13915 12.8084 4.28607C12.9554 4.43299 13.0379 4.63226 13.0379 4.84004V7.97377C13.0379 8.48818 12.9366 8.99755 12.7397 9.4728C12.5429 9.94805 12.2543 10.3799 11.8906 10.7436C11.5269 11.1074 11.095 11.3959 10.6198 11.5928C10.1445 11.7896 9.63515 11.8909 9.12074 11.8909M18.5219 15.0247C18.1064 15.0247 17.7078 14.8596 17.414 14.5657C17.1201 14.2719 16.9551 13.8734 16.9551 13.4578C16.9551 13.0422 17.1201 12.6437 17.414 12.3499C17.7078 12.056 18.1064 11.8909 18.5219 11.8909C18.9375 11.8909 19.336 12.056 19.6299 12.3499C19.9237 12.6437 20.0888 13.0422 20.0888 13.4578C20.0888 13.8734 19.9237 14.2719 19.6299 14.5657C19.336 14.8596 18.9375 15.0247 18.5219 15.0247Z" fill="currentColor"/>
</svg>
