<svg width="22" height="23" viewBox="0 0 22 23" fill="none" xmlns="http://www.w3.org/2000/svg">
<path d="M12.375 18.375H17.875V19.75H12.375V18.375ZM12.375 15.625H20.625V17H12.375V15.625ZM12.375 12.875H20.625V14.25H12.375V12.875Z" fill="currentColor"/>
<path d="M14.1273 8.21169L10.9999 1.875L7.87245 8.21169L0.879883 9.22781L5.93988 14.1606L4.74501 21.125L9.62488 18.5599V17.0062L6.5717 18.6115L7.29495 14.393L7.41732 13.6801L6.89963 13.1761L3.83476 10.1876L8.07045 9.57225L8.78545 9.46844L9.10582 8.82013L10.9999 4.98181L12.8939 8.82013L13.2143 9.46844L13.9293 9.57225L19.0539 10.3182L19.2499 8.95625L14.1273 8.21169Z" fill="currentColor"/>
</svg>
