<svg width="24" height="24" viewBox="0 0 24 24" fill="none" xmlns="http://www.w3.org/2000/svg">
<g clip-path="url(#clip0_3430_64674)">
<path fill-rule="evenodd" clip-rule="evenodd" d="M17.5181 2.38477C17.7935 2.38488 18.0656 2.44304 18.317 2.55545C18.5683 2.66786 18.7931 2.83198 18.9767 3.03712C19.1603 3.24227 19.2986 3.48381 19.3826 3.74601C19.4665 4.0082 19.4943 4.28515 19.464 4.55879L17.7238 20.2274C17.6708 20.7067 17.4428 21.1495 17.0836 21.4711C16.7244 21.7928 16.2591 21.9706 15.777 21.9706H7.737C7.25483 21.9706 6.7896 21.7928 6.43038 21.4711C6.07116 21.1495 5.84321 20.7067 5.79017 20.2274L4.049 4.55879C4.0187 4.28507 4.04647 4.00803 4.1305 3.74577C4.21452 3.48351 4.35291 3.24192 4.53662 3.03676C4.72034 2.8316 4.94526 2.6675 5.19669 2.55515C5.44813 2.4428 5.72043 2.38475 5.99582 2.38477H17.5181ZM17.5181 4.34335H5.99582L6.41202 8.08717C6.7636 8.02017 7.11919 7.97634 7.47651 7.95595C8.65068 7.8874 10.2734 8.02841 12.1428 8.82947C13.7009 9.49735 15.0161 9.60115 15.9229 9.54729C16.2709 9.5288 16.6166 9.47964 16.956 9.4004L17.5181 4.34335ZM16.7298 11.4334C16.5222 11.4628 16.2901 11.4882 16.0375 11.502C14.8633 11.5715 13.2406 11.4305 11.3711 10.6304C9.8131 9.96153 8.49791 9.85773 7.59109 9.91159C7.26753 9.92942 6.94593 9.9733 6.62942 10.0428L7.737 20.012H15.777L16.7298 11.4334ZM10.7777 13.157C10.7777 13.4167 10.6745 13.6658 10.4909 13.8494C10.3072 14.0331 10.0581 14.1362 9.79841 14.1362C9.53868 14.1362 9.2896 14.0331 9.10594 13.8494C8.92229 13.6658 8.81912 13.4167 8.81912 13.157C8.81912 12.8972 8.92229 12.6481 9.10594 12.4645C9.2896 12.2808 9.53868 12.1777 9.79841 12.1777C10.0581 12.1777 10.3072 12.2808 10.4909 12.4645C10.6745 12.6481 10.7777 12.8972 10.7777 13.157V13.157ZM12.7363 17.0741C12.996 17.0741 13.2451 16.9709 13.4287 16.7873C13.6124 16.6036 13.7156 16.3545 13.7156 16.0948C13.7156 15.8351 13.6124 15.586 13.4287 15.4024C13.2451 15.2187 12.996 15.1155 12.7363 15.1155C12.4766 15.1155 12.2275 15.2187 12.0438 15.4024C11.8602 15.586 11.757 15.8351 11.757 16.0948C11.757 16.3545 11.8602 16.6036 12.0438 16.7873C12.2275 16.9709 12.4766 17.0741 12.7363 17.0741V17.0741Z" fill="currentColor"/>
</g>
<defs>
<clipPath id="clip0_3430_64674">
<rect width="23.503" height="23.503" fill="white" transform="translate(0.00585938 0.42627)"/>
</clipPath>
</defs>
</svg>
