<svg width="23" height="18" viewBox="0 0 23 18" fill="none" xmlns="http://www.w3.org/2000/svg">
<path d="M18.75 11.0834V2.75008C18.75 1.60425 17.8125 0.666748 16.6667 0.666748H2.08333C0.9375 0.666748 0 1.60425 0 2.75008V11.0834C0 12.2292 0.9375 13.1667 2.08333 13.1667H16.6667C17.8125 13.1667 18.75 12.2292 18.75 11.0834ZM16.6667 11.0834H2.08333V2.75008H16.6667V11.0834ZM9.375 3.79175C7.64583 3.79175 6.25 5.18758 6.25 6.91675C6.25 8.64591 7.64583 10.0417 9.375 10.0417C11.1042 10.0417 12.5 8.64591 12.5 6.91675C12.5 5.18758 11.1042 3.79175 9.375 3.79175ZM22.9167 3.79175V15.2501C22.9167 16.3959 21.9792 17.3334 20.8333 17.3334H3.125V15.2501H20.8333V3.79175H22.9167Z" fill="currentColor"/>
</svg>
