<svg width="20" height="20" viewBox="0 0 20 20" fill="none" xmlns="http://www.w3.org/2000/svg">
<path d="M14.9072 6.01301C14.9948 5.92233 15.0433 5.80089 15.0422 5.67483C15.0411 5.54878 14.9905 5.42819 14.9014 5.33906C14.8122 5.24992 14.6917 5.19936 14.5656 5.19826C14.4395 5.19716 14.3181 5.24562 14.2274 5.3332L5.3332 14.2274C5.24562 14.3181 5.19716 14.4395 5.19826 14.5656C5.19936 14.6917 5.24992 14.8122 5.33906 14.9014C5.42819 14.9905 5.54878 15.0411 5.67483 15.0422C5.80089 15.0433 5.92233 14.9948 6.01301 14.9072L14.9072 6.01301Z" fill="currentColor"/>
<path fill-rule="evenodd" clip-rule="evenodd" d="M19.6154 9.99991C19.6154 15.3105 15.3106 19.6153 10 19.6153C4.68945 19.6153 0.384644 15.3105 0.384644 9.99991C0.384644 4.68933 4.68945 0.384521 10 0.384521C15.3106 0.384521 19.6154 4.68933 19.6154 9.99991ZM18.6539 9.99991C18.6539 14.7792 14.7794 18.6538 10 18.6538C5.2207 18.6538 1.34618 14.7792 1.34618 9.99991C1.34618 5.22058 5.2207 1.34606 10 1.34606C14.7794 1.34606 18.6539 5.22058 18.6539 9.99991Z" fill="currentColor"/>
</svg>
