<svg width="22" height="22" viewBox="0 0 22 22" fill="none" xmlns="http://www.w3.org/2000/svg">
<path d="M21.4181 3.42415L11.2649 0.0397625C11.0926 -0.0132542 10.9084 -0.0132542 10.7361 0.0397625L0.593529 3.42415H0.572377L0.466615 3.47703H0.456038L0.350276 3.54049C0.350276 3.55107 0.3397 3.55107 0.329124 3.56164L0.244514 3.63568L0.170481 3.72029C0.170481 3.73086 0.159904 3.73086 0.159904 3.74144L0.0964472 3.83662C0.0964472 3.8472 0.0964471 3.8472 0.0858709 3.85778L0.0435661 3.95296L0.0118375 4.0693V4.10103C0.00140556 4.14247 -0.00216719 4.18535 0.00126127 4.22794V12.6889C0.00126127 12.9133 0.0904033 13.1285 0.249077 13.2872C0.407751 13.4459 0.62296 13.535 0.847358 13.535C1.07176 13.535 1.28697 13.4459 1.44564 13.2872C1.60431 13.1285 1.69346 12.9133 1.69346 12.6889V5.4019L5.24706 6.58644C4.57945 7.65506 4.22748 8.89061 4.23175 10.1506C4.23214 11.2966 4.52345 12.4236 5.0784 13.4262C5.63335 14.4289 6.43375 15.2742 7.40461 15.8829C5.38709 16.6462 3.66471 18.0315 2.48667 19.8384C2.3666 20.0283 2.32592 20.2578 2.37339 20.4774C2.42087 20.6969 2.55271 20.8891 2.7405 21.0124C2.83266 21.0735 2.93602 21.1156 3.04459 21.1364C3.15316 21.1573 3.26478 21.1563 3.37299 21.1337C3.4812 21.1111 3.58385 21.0672 3.67498 21.0046C3.76611 20.9421 3.84391 20.862 3.90388 20.7691C4.67185 19.5862 5.72335 18.614 6.96276 17.9409C8.20216 17.2679 9.59016 16.9153 11.0005 16.9153C12.4109 16.9153 13.7989 17.2679 15.0383 17.9409C16.2777 18.614 17.3292 19.5862 18.0972 20.7691C18.1744 20.8864 18.2796 20.9826 18.4033 21.0491C18.527 21.1156 18.6653 21.1502 18.8058 21.1499C18.9679 21.1516 19.1266 21.1036 19.2605 21.0124C19.4483 20.8891 19.5802 20.6969 19.6277 20.4774C19.6751 20.2578 19.6345 20.0283 19.5144 19.8384C18.3363 18.0315 16.614 16.6462 14.5964 15.8829C15.5673 15.2742 16.3677 14.4289 16.9226 13.4262C17.4776 12.4236 17.7689 11.2966 17.7693 10.1506C17.7736 8.89061 17.4216 7.65506 16.754 6.58644L21.4181 5.03174C21.5874 4.9761 21.7348 4.86844 21.8393 4.7241C21.9437 4.57977 22 4.40613 22 4.22794C22 4.04976 21.9437 3.87612 21.8393 3.73179C21.7348 3.58745 21.5874 3.47979 21.4181 3.42415ZM16.0771 10.1506C16.0771 11.497 15.5423 12.7883 14.5902 13.7403C13.6382 14.6924 12.3469 15.2272 11.0005 15.2272C9.65413 15.2272 8.36288 14.6924 7.41084 13.7403C6.45879 12.7883 5.92394 11.497 5.92394 10.1506C5.92598 9.06734 6.27023 8.01239 6.90753 7.1364L10.7361 8.41612C10.9079 8.47262 11.0932 8.47262 11.2649 8.41612L15.0935 7.1364C15.7308 8.01239 16.0751 9.06734 16.0771 10.1506ZM15.0935 5.3596H15.0829L11.0005 6.72393L6.91811 5.3596H6.90753L3.52314 4.22794L11.0005 1.73196L18.4779 4.22794L15.0935 5.3596Z" fill="currentColor"/>
</svg>
